solid OpenSCAD_Model
  facet normal 0 0 1
    outer loop
      vertex 5.1 0.7 6.2
      vertex 4.1 0 6.2
      vertex 5.1 -0.7 6.2
    endloop
  endfacet
  facet normal 0 0 1
    outer loop
      vertex 5.1 0.7 6.2
      vertex 4.06492 0.535157 6.2
      vertex 4.1 0 6.2
    endloop
  endfacet
  facet normal 0 -0 1
    outer loop
      vertex 4.06492 0.535157 6.2
      vertex 5.1 0.7 6.2
      vertex 4.03213 0.7 6.2
    endloop
  endfacet
  facet normal -0 0 1
    outer loop
      vertex 4.06492 -0.535157 6.2
      vertex 5.1 -0.7 6.2
      vertex 4.1 0 6.2
    endloop
  endfacet
  facet normal 0 0 1
    outer loop
      vertex 5.1 -0.7 6.2
      vertex 4.06492 -0.535157 6.2
      vertex 4.03213 -0.7 6.2
    endloop
  endfacet
  facet normal 1 -0 0
    outer loop
      vertex 5.1 -0.7 6.2
      vertex 5.1 0.7 5
      vertex 5.1 0.7 6.2
    endloop
  endfacet
  facet normal 1 0 0
    outer loop
      vertex 5.1 0.7 5
      vertex 5.1 -0.7 6.2
      vertex 5.1 -0.7 5
    endloop
  endfacet
  facet normal 0 0 -1
    outer loop
      vertex 5.1 -0.7 5
      vertex 4.1 0 5
      vertex 5.1 0.7 5
    endloop
  endfacet
  facet normal 0 0 -1
    outer loop
      vertex 5.1 -0.7 5
      vertex 4.06492 -0.535157 5
      vertex 4.1 0 5
    endloop
  endfacet
  facet normal 0 -0 -1
    outer loop
      vertex 4.06492 -0.535157 5
      vertex 5.1 -0.7 5
      vertex 4.03213 -0.7 5
    endloop
  endfacet
  facet normal 0 0 -1
    outer loop
      vertex 4.06492 0.535157 5
      vertex 5.1 0.7 5
      vertex 4.1 0 5
    endloop
  endfacet
  facet normal -0 0 -1
    outer loop
      vertex 5.1 0.7 5
      vertex 4.06492 0.535157 5
      vertex 4.03213 0.7 5
    endloop
  endfacet
  facet normal 0 -1 0
    outer loop
      vertex 4.03213 -0.7 5
      vertex 5.1 -0.7 6.2
      vertex 4.03213 -0.7 6.2
    endloop
  endfacet
  facet normal 0 -1 -0
    outer loop
      vertex 5.1 -0.7 6.2
      vertex 4.03213 -0.7 5
      vertex 5.1 -0.7 5
    endloop
  endfacet
  facet normal 0 1 -0
    outer loop
      vertex 5.1 0.7 5
      vertex 4.03213 0.7 6.2
      vertex 5.1 0.7 6.2
    endloop
  endfacet
  facet normal 0 1 0
    outer loop
      vertex 4.03213 0.7 6.2
      vertex 5.1 0.7 5
      vertex 4.03213 0.7 5
    endloop
  endfacet
  facet normal 0 0 1
    outer loop
      vertex -4.06492 0.535157 6.2
      vertex -5.1 0.7 6.2
      vertex -4.1 0 6.2
    endloop
  endfacet
  facet normal -0 0 1
    outer loop
      vertex -5.1 0.7 6.2
      vertex -4.06492 0.535157 6.2
      vertex -4.03213 0.7 6.2
    endloop
  endfacet
  facet normal 0 0 1
    outer loop
      vertex -5.1 -0.7 6.2
      vertex -4.1 0 6.2
      vertex -5.1 0.7 6.2
    endloop
  endfacet
  facet normal 0 0 1
    outer loop
      vertex -4.1 0 6.2
      vertex -5.1 -0.7 6.2
      vertex -4.06492 -0.535157 6.2
    endloop
  endfacet
  facet normal 0 0 1
    outer loop
      vertex -4.06492 -0.535157 6.2
      vertex -5.1 -0.7 6.2
      vertex -4.03213 -0.7 6.2
    endloop
  endfacet
  facet normal -1 0 0
    outer loop
      vertex -5.1 -0.7 5
      vertex -5.1 0.7 6.2
      vertex -5.1 0.7 5
    endloop
  endfacet
  facet normal -1 -0 0
    outer loop
      vertex -5.1 0.7 6.2
      vertex -5.1 -0.7 5
      vertex -5.1 -0.7 6.2
    endloop
  endfacet
  facet normal 0 1 -0
    outer loop
      vertex -4.03213 0.7 5
      vertex -5.1 0.7 6.2
      vertex -4.03213 0.7 6.2
    endloop
  endfacet
  facet normal 0 1 0
    outer loop
      vertex -5.1 0.7 6.2
      vertex -4.03213 0.7 5
      vertex -5.1 0.7 5
    endloop
  endfacet
  facet normal -0 0 -1
    outer loop
      vertex -4.06492 -0.535157 5
      vertex -5.1 -0.7 5
      vertex -4.1 0 5
    endloop
  endfacet
  facet normal 0 0 -1
    outer loop
      vertex -5.1 -0.7 5
      vertex -4.06492 -0.535157 5
      vertex -4.03213 -0.7 5
    endloop
  endfacet
  facet normal 0 0 -1
    outer loop
      vertex -5.1 0.7 5
      vertex -4.1 0 5
      vertex -5.1 -0.7 5
    endloop
  endfacet
  facet normal 0 0 -1
    outer loop
      vertex -4.1 0 5
      vertex -5.1 0.7 5
      vertex -4.06492 0.535157 5
    endloop
  endfacet
  facet normal 0 0 -1
    outer loop
      vertex -4.06492 0.535157 5
      vertex -5.1 0.7 5
      vertex -4.03213 0.7 5
    endloop
  endfacet
  facet normal 0 -1 0
    outer loop
      vertex -5.1 -0.7 5
      vertex -4.03213 -0.7 6.2
      vertex -5.1 -0.7 6.2
    endloop
  endfacet
  facet normal 0 -1 -0
    outer loop
      vertex -4.03213 -0.7 6.2
      vertex -5.1 -0.7 5
      vertex -4.03213 -0.7 5
    endloop
  endfacet
  facet normal -0.946932 0.321433 0
    outer loop
      vertex -6.18192 1.65644 0
      vertex -5.91283 2.44917 3
      vertex -5.91283 2.44917 0
    endloop
  endfacet
  facet normal -0.946932 0.321433 0
    outer loop
      vertex -5.91283 2.44917 3
      vertex -6.18192 1.65644 0
      vertex -6.18192 1.65644 3
    endloop
  endfacet
  facet normal -0.321433 -0.946932 0
    outer loop
      vertex -2.44917 -5.91283 0
      vertex -1.65644 -6.18192 3
      vertex -2.44917 -5.91283 3
    endloop
  endfacet
  facet normal -0.321433 -0.946932 -0
    outer loop
      vertex -1.65644 -6.18192 3
      vertex -2.44917 -5.91283 0
      vertex -1.65644 -6.18192 0
    endloop
  endfacet
  facet normal 0.555571 0.831469 -0
    outer loop
      vertex 3.89607 5.07746 0
      vertex 3.2 5.54256 3
      vertex 3.89607 5.07746 3
    endloop
  endfacet
  facet normal 0.555571 0.831469 0
    outer loop
      vertex 3.2 5.54256 3
      vertex 3.89607 5.07746 0
      vertex 3.2 5.54256 0
    endloop
  endfacet
  facet normal -0.321433 0.946932 0
    outer loop
      vertex -1.65644 6.18192 0
      vertex -2.44917 5.91283 3
      vertex -1.65644 6.18192 3
    endloop
  endfacet
  facet normal -0.321433 0.946932 0
    outer loop
      vertex -2.44917 5.91283 3
      vertex -1.65644 6.18192 0
      vertex -2.44917 5.91283 0
    endloop
  endfacet
  facet normal -0.896872 0.44229 0
    outer loop
      vertex -5.91283 2.44917 0
      vertex -5.54256 3.2 3
      vertex -5.54256 3.2 0
    endloop
  endfacet
  facet normal -0.896872 0.44229 0
    outer loop
      vertex -5.54256 3.2 3
      vertex -5.91283 2.44917 0
      vertex -5.91283 2.44917 3
    endloop
  endfacet
  facet normal -0.896872 -0.44229 0
    outer loop
      vertex -5.54256 -3.2 0
      vertex -5.91283 -2.44917 3
      vertex -5.91283 -2.44917 0
    endloop
  endfacet
  facet normal -0.896872 -0.44229 0
    outer loop
      vertex -5.91283 -2.44917 3
      vertex -5.54256 -3.2 0
      vertex -5.54256 -3.2 3
    endloop
  endfacet
  facet normal 0.946932 0.321434 0
    outer loop
      vertex 6.0653 2 3
      vertex 5.91283 2.44917 0
      vertex 5.91283 2.44917 3
    endloop
  endfacet
  facet normal 0.946932 0.321434 0
    outer loop
      vertex 5.91283 2.44917 0
      vertex 6.0653 2 3
      vertex 6.0653 2 0
    endloop
  endfacet
  facet normal 0.831469 0.555571 0
    outer loop
      vertex 5.54256 3.2 3
      vertex 5.07746 3.89607 0
      vertex 5.07746 3.89607 3
    endloop
  endfacet
  facet normal 0.831469 0.555571 0
    outer loop
      vertex 5.07746 3.89607 0
      vertex 5.54256 3.2 3
      vertex 5.54256 3.2 0
    endloop
  endfacet
  facet normal 0.751838 0.659347 0
    outer loop
      vertex 5.07746 3.89607 3
      vertex 4.52548 4.52548 0
      vertex 4.52548 4.52548 3
    endloop
  endfacet
  facet normal 0.751838 0.659347 0
    outer loop
      vertex 4.52548 4.52548 0
      vertex 5.07746 3.89607 3
      vertex 5.07746 3.89607 0
    endloop
  endfacet
  facet normal 0.44229 0.896872 -0
    outer loop
      vertex 3.2 5.54256 0
      vertex 2.44917 5.91283 3
      vertex 3.2 5.54256 3
    endloop
  endfacet
  facet normal 0.44229 0.896872 0
    outer loop
      vertex 2.44917 5.91283 3
      vertex 3.2 5.54256 0
      vertex 2.44917 5.91283 0
    endloop
  endfacet
  facet normal 0.321433 0.946932 -0
    outer loop
      vertex 2.44917 5.91283 0
      vertex 1.65644 6.18192 3
      vertex 2.44917 5.91283 3
    endloop
  endfacet
  facet normal 0.321433 0.946932 0
    outer loop
      vertex 1.65644 6.18192 3
      vertex 2.44917 5.91283 0
      vertex 1.65644 6.18192 0
    endloop
  endfacet
  facet normal -0.751838 0.659347 0
    outer loop
      vertex -5.07746 3.89607 0
      vertex -4.52548 4.52548 3
      vertex -4.52548 4.52548 0
    endloop
  endfacet
  facet normal -0.751838 0.659347 0
    outer loop
      vertex -4.52548 4.52548 3
      vertex -5.07746 3.89607 0
      vertex -5.07746 3.89607 3
    endloop
  endfacet
  facet normal -0.44229 0.896872 0
    outer loop
      vertex -2.44917 5.91283 0
      vertex -3.2 5.54256 3
      vertex -2.44917 5.91283 3
    endloop
  endfacet
  facet normal -0.44229 0.896872 0
    outer loop
      vertex -3.2 5.54256 3
      vertex -2.44917 5.91283 0
      vertex -3.2 5.54256 0
    endloop
  endfacet
  facet normal -0.555571 0.831469 0
    outer loop
      vertex -3.2 5.54256 0
      vertex -3.89607 5.07746 3
      vertex -3.2 5.54256 3
    endloop
  endfacet
  facet normal -0.555571 0.831469 0
    outer loop
      vertex -3.89607 5.07746 3
      vertex -3.2 5.54256 0
      vertex -3.89607 5.07746 0
    endloop
  endfacet
  facet normal 0.321433 -0.946932 0
    outer loop
      vertex 1.65644 -6.18192 0
      vertex 2.44917 -5.91283 3
      vertex 1.65644 -6.18192 3
    endloop
  endfacet
  facet normal 0.321433 -0.946932 0
    outer loop
      vertex 2.44917 -5.91283 3
      vertex 1.65644 -6.18192 0
      vertex 2.44917 -5.91283 0
    endloop
  endfacet
  facet normal 0.896872 -0.44229 0
    outer loop
      vertex 5.54256 -3.2 3
      vertex 5.91283 -2.44917 0
      vertex 5.91283 -2.44917 3
    endloop
  endfacet
  facet normal 0.896872 -0.44229 0
    outer loop
      vertex 5.91283 -2.44917 0
      vertex 5.54256 -3.2 3
      vertex 5.54256 -3.2 0
    endloop
  endfacet
  facet normal 0.659347 -0.751838 0
    outer loop
      vertex 3.89607 -5.07746 0
      vertex 4.52548 -4.52548 3
      vertex 3.89607 -5.07746 3
    endloop
  endfacet
  facet normal 0.659347 -0.751838 0
    outer loop
      vertex 4.52548 -4.52548 3
      vertex 3.89607 -5.07746 0
      vertex 4.52548 -4.52548 0
    endloop
  endfacet
  facet normal 0.44229 -0.896872 0
    outer loop
      vertex 2.44917 -5.91283 0
      vertex 3.2 -5.54256 3
      vertex 2.44917 -5.91283 3
    endloop
  endfacet
  facet normal 0.44229 -0.896872 0
    outer loop
      vertex 3.2 -5.54256 3
      vertex 2.44917 -5.91283 0
      vertex 3.2 -5.54256 0
    endloop
  endfacet
  facet normal -0.0653997 -0.997859 0
    outer loop
      vertex -0.835367 -6.34525 0
      vertex 0 -6.4 3
      vertex -0.835367 -6.34525 3
    endloop
  endfacet
  facet normal -0.0653997 -0.997859 -0
    outer loop
      vertex 0 -6.4 3
      vertex -0.835367 -6.34525 0
      vertex 0 -6.4 0
    endloop
  endfacet
  facet normal -0.44229 -0.896872 0
    outer loop
      vertex -3.2 -5.54256 0
      vertex -2.44917 -5.91283 3
      vertex -3.2 -5.54256 3
    endloop
  endfacet
  facet normal -0.44229 -0.896872 -0
    outer loop
      vertex -2.44917 -5.91283 3
      vertex -3.2 -5.54256 0
      vertex -2.44917 -5.91283 0
    endloop
  endfacet
  facet normal -0.555571 -0.831469 0
    outer loop
      vertex -3.89607 -5.07746 0
      vertex -3.2 -5.54256 3
      vertex -3.89607 -5.07746 3
    endloop
  endfacet
  facet normal -0.555571 -0.831469 -0
    outer loop
      vertex -3.2 -5.54256 3
      vertex -3.89607 -5.07746 0
      vertex -3.2 -5.54256 0
    endloop
  endfacet
  facet normal -0.980783 -0.1951 0
    outer loop
      vertex -6.18192 -1.65644 0
      vertex -6.34525 -0.835367 3
      vertex -6.34525 -0.835367 0
    endloop
  endfacet
  facet normal -0.980783 -0.1951 0
    outer loop
      vertex -6.34525 -0.835367 3
      vertex -6.18192 -1.65644 0
      vertex -6.18192 -1.65644 3
    endloop
  endfacet
  facet normal 0.896872 0.44229 0
    outer loop
      vertex 5.91283 2.44917 3
      vertex 5.54256 3.2 0
      vertex 5.54256 3.2 3
    endloop
  endfacet
  facet normal 0.896872 0.44229 0
    outer loop
      vertex 5.54256 3.2 0
      vertex 5.91283 2.44917 3
      vertex 5.91283 2.44917 0
    endloop
  endfacet
  facet normal 0.0653997 0.997859 -0
    outer loop
      vertex 0.835367 6.34525 0
      vertex 0 6.4 3
      vertex 0.835367 6.34525 3
    endloop
  endfacet
  facet normal 0.0653997 0.997859 0
    outer loop
      vertex 0 6.4 3
      vertex 0.835367 6.34525 0
      vertex 0 6.4 0
    endloop
  endfacet
  facet normal -0.997859 0.0653997 0
    outer loop
      vertex -6.4 0 0
      vertex -6.34525 0.835367 3
      vertex -6.34525 0.835367 0
    endloop
  endfacet
  facet normal -0.997859 0.0653997 0
    outer loop
      vertex -6.34525 0.835367 3
      vertex -6.4 0 0
      vertex -6.4 0 3
    endloop
  endfacet
  facet normal -0.831469 0.555571 0
    outer loop
      vertex -5.54256 3.2 0
      vertex -5.07746 3.89607 3
      vertex -5.07746 3.89607 0
    endloop
  endfacet
  facet normal -0.831469 0.555571 0
    outer loop
      vertex -5.07746 3.89607 3
      vertex -5.54256 3.2 0
      vertex -5.54256 3.2 3
    endloop
  endfacet
  facet normal -0.0653997 0.997859 0
    outer loop
      vertex 0 6.4 0
      vertex -0.835367 6.34525 3
      vertex 0 6.4 3
    endloop
  endfacet
  facet normal -0.0653997 0.997859 0
    outer loop
      vertex -0.835367 6.34525 3
      vertex 0 6.4 0
      vertex -0.835367 6.34525 0
    endloop
  endfacet
  facet normal -0.1951 0.980783 0
    outer loop
      vertex -0.835367 6.34525 0
      vertex -1.65644 6.18192 3
      vertex -0.835367 6.34525 3
    endloop
  endfacet
  facet normal -0.1951 0.980783 0
    outer loop
      vertex -1.65644 6.18192 3
      vertex -0.835367 6.34525 0
      vertex -1.65644 6.18192 0
    endloop
  endfacet
  facet normal -0.659347 0.751838 0
    outer loop
      vertex -3.89607 5.07746 0
      vertex -4.52548 4.52548 3
      vertex -3.89607 5.07746 3
    endloop
  endfacet
  facet normal -0.659347 0.751838 0
    outer loop
      vertex -4.52548 4.52548 3
      vertex -3.89607 5.07746 0
      vertex -4.52548 4.52548 0
    endloop
  endfacet
  facet normal 0.0653997 -0.997859 0
    outer loop
      vertex 0 -6.4 0
      vertex 0.835367 -6.34525 3
      vertex 0 -6.4 3
    endloop
  endfacet
  facet normal 0.0653997 -0.997859 0
    outer loop
      vertex 0.835367 -6.34525 3
      vertex 0 -6.4 0
      vertex 0.835367 -6.34525 0
    endloop
  endfacet
  facet normal 0.1951 -0.980783 0
    outer loop
      vertex 0.835367 -6.34525 0
      vertex 1.65644 -6.18192 3
      vertex 0.835367 -6.34525 3
    endloop
  endfacet
  facet normal 0.1951 -0.980783 0
    outer loop
      vertex 1.65644 -6.18192 3
      vertex 0.835367 -6.34525 0
      vertex 1.65644 -6.18192 0
    endloop
  endfacet
  facet normal 0.555571 -0.831469 0
    outer loop
      vertex 3.2 -5.54256 0
      vertex 3.89607 -5.07746 3
      vertex 3.2 -5.54256 3
    endloop
  endfacet
  facet normal 0.555571 -0.831469 0
    outer loop
      vertex 3.89607 -5.07746 3
      vertex 3.2 -5.54256 0
      vertex 3.89607 -5.07746 0
    endloop
  endfacet
  facet normal -0.1951 -0.980783 0
    outer loop
      vertex -1.65644 -6.18192 0
      vertex -0.835367 -6.34525 3
      vertex -1.65644 -6.18192 3
    endloop
  endfacet
  facet normal -0.1951 -0.980783 -0
    outer loop
      vertex -0.835367 -6.34525 3
      vertex -1.65644 -6.18192 0
      vertex -0.835367 -6.34525 0
    endloop
  endfacet
  facet normal -0.659347 -0.751838 0
    outer loop
      vertex -4.52548 -4.52548 0
      vertex -3.89607 -5.07746 3
      vertex -4.52548 -4.52548 3
    endloop
  endfacet
  facet normal -0.659347 -0.751838 -0
    outer loop
      vertex -3.89607 -5.07746 3
      vertex -4.52548 -4.52548 0
      vertex -3.89607 -5.07746 0
    endloop
  endfacet
  facet normal -0.946932 -0.321433 0
    outer loop
      vertex -5.91283 -2.44917 0
      vertex -6.18192 -1.65644 3
      vertex -6.18192 -1.65644 0
    endloop
  endfacet
  facet normal -0.946932 -0.321433 0
    outer loop
      vertex -6.18192 -1.65644 3
      vertex -5.91283 -2.44917 0
      vertex -5.91283 -2.44917 3
    endloop
  endfacet
  facet normal -0.997859 -0.0653997 0
    outer loop
      vertex -6.34525 -0.835367 0
      vertex -6.4 0 3
      vertex -6.4 0 0
    endloop
  endfacet
  facet normal -0.997859 -0.0653997 0
    outer loop
      vertex -6.4 0 3
      vertex -6.34525 -0.835367 0
      vertex -6.34525 -0.835367 3
    endloop
  endfacet
  facet normal 0 0 -1
    outer loop
      vertex 9 -2 0
      vertex 8 0 0
      vertex 9 2 0
    endloop
  endfacet
  facet normal 0 0 -1
    outer loop
      vertex 9 -2 0
      vertex 7.99144 -0.130526 0
      vertex 8 0 0
    endloop
  endfacet
  facet normal 0 0 -1
    outer loop
      vertex 9 -2 0
      vertex 7.96593 -0.258819 0
      vertex 7.99144 -0.130526 0
    endloop
  endfacet
  facet normal 0 0 -1
    outer loop
      vertex 9 -2 0
      vertex 7.92388 -0.382683 0
      vertex 7.96593 -0.258819 0
    endloop
  endfacet
  facet normal 0 0 -1
    outer loop
      vertex 9 -2 0
      vertex 7.86602 -0.5 0
      vertex 7.92388 -0.382683 0
    endloop
  endfacet
  facet normal 0 0 -1
    outer loop
      vertex 9 -2 0
      vertex 7.79335 -0.608761 0
      vertex 7.86602 -0.5 0
    endloop
  endfacet
  facet normal 0 0 -1
    outer loop
      vertex 9 -2 0
      vertex 7.70711 -0.707107 0
      vertex 7.79335 -0.608761 0
    endloop
  endfacet
  facet normal 0 0 -1
    outer loop
      vertex 9 -2 0
      vertex 7.60876 -0.793353 0
      vertex 7.70711 -0.707107 0
    endloop
  endfacet
  facet normal 0 0 -1
    outer loop
      vertex 9 -2 0
      vertex 7.5 -0.866025 0
      vertex 7.60876 -0.793353 0
    endloop
  endfacet
  facet normal 0 0 -1
    outer loop
      vertex 9 -2 0
      vertex 7.38268 -0.923879 0
      vertex 7.5 -0.866025 0
    endloop
  endfacet
  facet normal 0 0 -1
    outer loop
      vertex 9 -2 0
      vertex 7.25882 -0.965925 0
      vertex 7.38268 -0.923879 0
    endloop
  endfacet
  facet normal 0 0 -1
    outer loop
      vertex 6.0653 -2 0
      vertex 7.25882 -0.965925 0
      vertex 9 -2 0
    endloop
  endfacet
  facet normal 0 0 -1
    outer loop
      vertex 7.25882 -0.965925 0
      vertex 6.0653 -2 0
      vertex 7.13053 -0.991445 0
    endloop
  endfacet
  facet normal 0 0 -1
    outer loop
      vertex 7.13053 -0.991445 0
      vertex 6.0653 -2 0
      vertex 7 -1 0
    endloop
  endfacet
  facet normal -0 0 -1
    outer loop
      vertex 7 -1 0
      vertex 6.0653 -2 0
      vertex 6.86947 -0.991445 0
    endloop
  endfacet
  facet normal -0 0 -1
    outer loop
      vertex 6.86947 -0.991445 0
      vertex 6.0653 -2 0
      vertex 6.74118 -0.965925 0
    endloop
  endfacet
  facet normal -0 0 -1
    outer loop
      vertex 6.74118 -0.965925 0
      vertex 6.0653 -2 0
      vertex 6.61732 -0.923879 0
    endloop
  endfacet
  facet normal 0 0 -1
    outer loop
      vertex 6.0653 -2 0
      vertex 6.5 -0.866025 0
      vertex 6.61732 -0.923879 0
    endloop
  endfacet
  facet normal 0 0 -1
    outer loop
      vertex 6.0653 -2 0
      vertex 6.39124 -0.793353 0
      vertex 6.5 -0.866025 0
    endloop
  endfacet
  facet normal 0 0 -1
    outer loop
      vertex 6.0653 -2 0
      vertex 6.29289 -0.707107 0
      vertex 6.39124 -0.793353 0
    endloop
  endfacet
  facet normal 0 0 -1
    outer loop
      vertex 6.0653 -2 0
      vertex 6.20665 -0.608761 0
      vertex 6.29289 -0.707107 0
    endloop
  endfacet
  facet normal 0 0 -1
    outer loop
      vertex 6.0653 -2 0
      vertex 6.13397 -0.5 0
      vertex 6.20665 -0.608761 0
    endloop
  endfacet
  facet normal 0 0 -1
    outer loop
      vertex 6.0653 -2 0
      vertex 6.07612 -0.382683 0
      vertex 6.13397 -0.5 0
    endloop
  endfacet
  facet normal 0 0 -1
    outer loop
      vertex 6.0653 -2 0
      vertex 6.03407 -0.258819 0
      vertex 6.07612 -0.382683 0
    endloop
  endfacet
  facet normal 0 0 -1
    outer loop
      vertex 5.91283 -2.44917 0
      vertex 6.03407 -0.258819 0
      vertex 6.0653 -2 0
    endloop
  endfacet
  facet normal 0 0 -1
    outer loop
      vertex 5.54256 -3.2 0
      vertex 6.03407 -0.258819 0
      vertex 5.91283 -2.44917 0
    endloop
  endfacet
  facet normal -0 0 -1
    outer loop
      vertex 6.03407 -0.258819 0
      vertex 5.54256 -3.2 0
      vertex 6.00855 -0.130526 0
    endloop
  endfacet
  facet normal 0 0 -1
    outer loop
      vertex 7.99144 0.130526 0
      vertex 9 2 0
      vertex 8 0 0
    endloop
  endfacet
  facet normal 0 0 -1
    outer loop
      vertex 7.96593 0.258819 0
      vertex 9 2 0
      vertex 7.99144 0.130526 0
    endloop
  endfacet
  facet normal 0 0 -1
    outer loop
      vertex 7.92388 0.382683 0
      vertex 9 2 0
      vertex 7.96593 0.258819 0
    endloop
  endfacet
  facet normal 0 0 -1
    outer loop
      vertex 7.86602 0.5 0
      vertex 9 2 0
      vertex 7.92388 0.382683 0
    endloop
  endfacet
  facet normal 0 0 -1
    outer loop
      vertex 7.79335 0.608761 0
      vertex 9 2 0
      vertex 7.86602 0.5 0
    endloop
  endfacet
  facet normal 0 0 -1
    outer loop
      vertex 7.70711 0.707107 0
      vertex 9 2 0
      vertex 7.79335 0.608761 0
    endloop
  endfacet
  facet normal 0 0 -1
    outer loop
      vertex 7.60876 0.793353 0
      vertex 9 2 0
      vertex 7.70711 0.707107 0
    endloop
  endfacet
  facet normal 0 0 -1
    outer loop
      vertex 7.5 0.866025 0
      vertex 9 2 0
      vertex 7.60876 0.793353 0
    endloop
  endfacet
  facet normal 0 0 -1
    outer loop
      vertex 7.38268 0.923879 0
      vertex 9 2 0
      vertex 7.5 0.866025 0
    endloop
  endfacet
  facet normal 0 0 -1
    outer loop
      vertex 7.25882 0.965925 0
      vertex 9 2 0
      vertex 7.38268 0.923879 0
    endloop
  endfacet
  facet normal 0 0 -1
    outer loop
      vertex 6.0653 2 0
      vertex 7.25882 0.965925 0
      vertex 7.13053 0.991445 0
    endloop
  endfacet
  facet normal 0 0 -1
    outer loop
      vertex 6.0653 2 0
      vertex 7.13053 0.991445 0
      vertex 7 1 0
    endloop
  endfacet
  facet normal 0 0 -1
    outer loop
      vertex 6.0653 2 0
      vertex 7 1 0
      vertex 6.86947 0.991445 0
    endloop
  endfacet
  facet normal 0 0 -1
    outer loop
      vertex 6.0653 2 0
      vertex 6.86947 0.991445 0
      vertex 6.74118 0.965925 0
    endloop
  endfacet
  facet normal 0 0 -1
    outer loop
      vertex 6.0653 2 0
      vertex 6.74118 0.965925 0
      vertex 6.61732 0.923879 0
    endloop
  endfacet
  facet normal 0 0 -1
    outer loop
      vertex 7.25882 0.965925 0
      vertex 6.0653 2 0
      vertex 9 2 0
    endloop
  endfacet
  facet normal 0 0 -1
    outer loop
      vertex 6.5 0.866025 0
      vertex 6.0653 2 0
      vertex 6.61732 0.923879 0
    endloop
  endfacet
  facet normal 0 0 -1
    outer loop
      vertex 6.39124 0.793353 0
      vertex 6.0653 2 0
      vertex 6.5 0.866025 0
    endloop
  endfacet
  facet normal 0 0 -1
    outer loop
      vertex 6.29289 0.707107 0
      vertex 6.0653 2 0
      vertex 6.39124 0.793353 0
    endloop
  endfacet
  facet normal 0 0 -1
    outer loop
      vertex 6.20665 0.608761 0
      vertex 6.0653 2 0
      vertex 6.29289 0.707107 0
    endloop
  endfacet
  facet normal 0 0 -1
    outer loop
      vertex 6.13397 0.5 0
      vertex 6.0653 2 0
      vertex 6.20665 0.608761 0
    endloop
  endfacet
  facet normal 0 0 -1
    outer loop
      vertex 6.07612 0.382683 0
      vertex 6.0653 2 0
      vertex 6.13397 0.5 0
    endloop
  endfacet
  facet normal 0 0 -1
    outer loop
      vertex 6.03407 0.258819 0
      vertex 6.0653 2 0
      vertex 6.07612 0.382683 0
    endloop
  endfacet
  facet normal 0 0 -1
    outer loop
      vertex 5.54256 3.2 0
      vertex 6.03407 0.258819 0
      vertex 6.00855 0.130526 0
    endloop
  endfacet
  facet normal 0 0 -1
    outer loop
      vertex 1.65644 6.18192 0
      vertex 6.00855 0.130526 0
      vertex 6 0 0
    endloop
  endfacet
  facet normal 0 0 -1
    outer loop
      vertex 5.07746 -3.89607 0
      vertex 6.00855 -0.130526 0
      vertex 5.54256 -3.2 0
    endloop
  endfacet
  facet normal 0 0 -1
    outer loop
      vertex 4.52548 -4.52548 0
      vertex 6.00855 -0.130526 0
      vertex 5.07746 -3.89607 0
    endloop
  endfacet
  facet normal 0 0 -1
    outer loop
      vertex 3.89607 -5.07746 0
      vertex 6.00855 -0.130526 0
      vertex 4.52548 -4.52548 0
    endloop
  endfacet
  facet normal 0 0 -1
    outer loop
      vertex 6.03407 0.258819 0
      vertex 5.91283 2.44917 0
      vertex 6.0653 2 0
    endloop
  endfacet
  facet normal 0 0 -1
    outer loop
      vertex 6.00855 0.130526 0
      vertex 5.07746 3.89607 0
      vertex 5.54256 3.2 0
    endloop
  endfacet
  facet normal 0 0 -1
    outer loop
      vertex 6.03407 0.258819 0
      vertex 5.54256 3.2 0
      vertex 5.91283 2.44917 0
    endloop
  endfacet
  facet normal 0 0 -1
    outer loop
      vertex 3.2 -5.54256 0
      vertex 6.00855 -0.130526 0
      vertex 3.89607 -5.07746 0
    endloop
  endfacet
  facet normal 0 0 -1
    outer loop
      vertex 6.00855 0.130526 0
      vertex 4.52548 4.52548 0
      vertex 5.07746 3.89607 0
    endloop
  endfacet
  facet normal 0 0 -1
    outer loop
      vertex 2.44917 -5.91283 0
      vertex 6.00855 -0.130526 0
      vertex 3.2 -5.54256 0
    endloop
  endfacet
  facet normal 0 0 -1
    outer loop
      vertex 6.00855 0.130526 0
      vertex 3.89607 5.07746 0
      vertex 4.52548 4.52548 0
    endloop
  endfacet
  facet normal 0 0 -1
    outer loop
      vertex 1.65644 -6.18192 0
      vertex 6.00855 -0.130526 0
      vertex 2.44917 -5.91283 0
    endloop
  endfacet
  facet normal 0 0 -1
    outer loop
      vertex 6.00855 0.130526 0
      vertex 3.2 5.54256 0
      vertex 3.89607 5.07746 0
    endloop
  endfacet
  facet normal -0 0 -1
    outer loop
      vertex 6.00855 -0.130526 0
      vertex 1.65644 -6.18192 0
      vertex 6 0 0
    endloop
  endfacet
  facet normal 0 0 -1
    outer loop
      vertex 6.00855 0.130526 0
      vertex 2.44917 5.91283 0
      vertex 3.2 5.54256 0
    endloop
  endfacet
  facet normal 0 0 -1
    outer loop
      vertex 0.835367 -6.34525 0
      vertex 6 0 0
      vertex 1.65644 -6.18192 0
    endloop
  endfacet
  facet normal 0 0 -1
    outer loop
      vertex 6.00855 0.130526 0
      vertex 1.65644 6.18192 0
      vertex 2.44917 5.91283 0
    endloop
  endfacet
  facet normal 0 0 -1
    outer loop
      vertex 0 -6.4 0
      vertex 6 0 0
      vertex 0.835367 -6.34525 0
    endloop
  endfacet
  facet normal 0 0 -1
    outer loop
      vertex 6 0 0
      vertex 0.835367 6.34525 0
      vertex 1.65644 6.18192 0
    endloop
  endfacet
  facet normal 0 0 -1
    outer loop
      vertex -0.835367 -6.34525 0
      vertex 6 0 0
      vertex 0 -6.4 0
    endloop
  endfacet
  facet normal 0 0 -1
    outer loop
      vertex 6 0 0
      vertex 0 6.4 0
      vertex 0.835367 6.34525 0
    endloop
  endfacet
  facet normal 0 0 -1
    outer loop
      vertex -1.65644 -6.18192 0
      vertex 6 0 0
      vertex -0.835367 -6.34525 0
    endloop
  endfacet
  facet normal 0 0 -1
    outer loop
      vertex 6 0 0
      vertex -0.835367 6.34525 0
      vertex 0 6.4 0
    endloop
  endfacet
  facet normal 0 0 -1
    outer loop
      vertex -2.44917 -5.91283 0
      vertex 6 0 0
      vertex -1.65644 -6.18192 0
    endloop
  endfacet
  facet normal 0 0 -1
    outer loop
      vertex 6 0 0
      vertex -1.65644 6.18192 0
      vertex -0.835367 6.34525 0
    endloop
  endfacet
  facet normal 0 0 -1
    outer loop
      vertex -3.2 -5.54256 0
      vertex 6 0 0
      vertex -2.44917 -5.91283 0
    endloop
  endfacet
  facet normal 0 0 -1
    outer loop
      vertex 6 0 0
      vertex -2.44917 5.91283 0
      vertex -1.65644 6.18192 0
    endloop
  endfacet
  facet normal 0 0 -1
    outer loop
      vertex -3.89607 -5.07746 0
      vertex 6 0 0
      vertex -3.2 -5.54256 0
    endloop
  endfacet
  facet normal 0 0 -1
    outer loop
      vertex 6 0 0
      vertex -3.2 5.54256 0
      vertex -2.44917 5.91283 0
    endloop
  endfacet
  facet normal 0 0 -1
    outer loop
      vertex -4.52548 -4.52548 0
      vertex 6 0 0
      vertex -3.89607 -5.07746 0
    endloop
  endfacet
  facet normal 0 0 -1
    outer loop
      vertex 6 0 0
      vertex -3.89607 5.07746 0
      vertex -3.2 5.54256 0
    endloop
  endfacet
  facet normal 0 0 -1
    outer loop
      vertex -5.07746 -3.89607 0
      vertex 6 0 0
      vertex -4.52548 -4.52548 0
    endloop
  endfacet
  facet normal 0 0 -1
    outer loop
      vertex 6 0 0
      vertex -4.52548 4.52548 0
      vertex -3.89607 5.07746 0
    endloop
  endfacet
  facet normal 0 0 -1
    outer loop
      vertex -5.54256 -3.2 0
      vertex 6 0 0
      vertex -5.07746 -3.89607 0
    endloop
  endfacet
  facet normal 0 0 -1
    outer loop
      vertex 6 0 0
      vertex -5.07746 3.89607 0
      vertex -4.52548 4.52548 0
    endloop
  endfacet
  facet normal 0 0 -1
    outer loop
      vertex -5.91283 -2.44917 0
      vertex 6 0 0
      vertex -5.54256 -3.2 0
    endloop
  endfacet
  facet normal 0 0 -1
    outer loop
      vertex 6 0 0
      vertex -5.54256 3.2 0
      vertex -5.07746 3.89607 0
    endloop
  endfacet
  facet normal 0 0 -1
    outer loop
      vertex -6.18192 -1.65644 0
      vertex 6 0 0
      vertex -5.91283 -2.44917 0
    endloop
  endfacet
  facet normal 0 0 -1
    outer loop
      vertex 6 0 0
      vertex -5.91283 2.44917 0
      vertex -5.54256 3.2 0
    endloop
  endfacet
  facet normal 0 0 -1
    outer loop
      vertex -6.18192 1.65644 0
      vertex 6 0 0
      vertex -6.18192 -1.65644 0
    endloop
  endfacet
  facet normal 0 0 -1
    outer loop
      vertex 6 0 0
      vertex -6.18192 1.65644 0
      vertex -5.91283 2.44917 0
    endloop
  endfacet
  facet normal 0 0 -1
    outer loop
      vertex -6.34525 -0.835367 0
      vertex -6.18192 1.65644 0
      vertex -6.18192 -1.65644 0
    endloop
  endfacet
  facet normal 0 0 -1
    outer loop
      vertex -6.34525 -0.835367 0
      vertex -6.34525 0.835367 0
      vertex -6.18192 1.65644 0
    endloop
  endfacet
  facet normal 0 -0 -1
    outer loop
      vertex -6.34525 0.835367 0
      vertex -6.34525 -0.835367 0
      vertex -6.4 0 0
    endloop
  endfacet
  facet normal -0.831469 -0.555571 0
    outer loop
      vertex -5.07746 -3.89607 0
      vertex -5.54256 -3.2 3
      vertex -5.54256 -3.2 0
    endloop
  endfacet
  facet normal -0.831469 -0.555571 0
    outer loop
      vertex -5.54256 -3.2 3
      vertex -5.07746 -3.89607 0
      vertex -5.07746 -3.89607 3
    endloop
  endfacet
  facet normal -0.751838 -0.659347 0
    outer loop
      vertex -4.52548 -4.52548 0
      vertex -5.07746 -3.89607 3
      vertex -5.07746 -3.89607 0
    endloop
  endfacet
  facet normal -0.751838 -0.659347 0
    outer loop
      vertex -5.07746 -3.89607 3
      vertex -4.52548 -4.52548 0
      vertex -4.52548 -4.52548 3
    endloop
  endfacet
  facet normal 0.659347 0.751838 -0
    outer loop
      vertex 4.52548 4.52548 0
      vertex 3.89607 5.07746 3
      vertex 4.52548 4.52548 3
    endloop
  endfacet
  facet normal 0.659347 0.751838 0
    outer loop
      vertex 3.89607 5.07746 3
      vertex 4.52548 4.52548 0
      vertex 3.89607 5.07746 0
    endloop
  endfacet
  facet normal 0.1951 0.980783 -0
    outer loop
      vertex 1.65644 6.18192 0
      vertex 0.835367 6.34525 3
      vertex 1.65644 6.18192 3
    endloop
  endfacet
  facet normal 0.1951 0.980783 0
    outer loop
      vertex 0.835367 6.34525 3
      vertex 1.65644 6.18192 0
      vertex 0.835367 6.34525 0
    endloop
  endfacet
  facet normal 0 0 1
    outer loop
      vertex 5.91283 -2.44917 3
      vertex 3.78791 -1.569 3
      vertex 5.54256 -3.2 3
    endloop
  endfacet
  facet normal -0 0 1
    outer loop
      vertex 3.5507 -2.05 3
      vertex 5.54256 -3.2 3
      vertex 3.78791 -1.569 3
    endloop
  endfacet
  facet normal 0 0 1
    outer loop
      vertex 5.54256 -3.2 3
      vertex 3.5507 -2.05 3
      vertex 5.07746 -3.89607 3
    endloop
  endfacet
  facet normal -0 0 1
    outer loop
      vertex 3.25275 -2.49592 3
      vertex 5.07746 -3.89607 3
      vertex 3.5507 -2.05 3
    endloop
  endfacet
  facet normal 0 0 1
    outer loop
      vertex 5.07746 -3.89607 3
      vertex 3.25275 -2.49592 3
      vertex 4.52548 -4.52548 3
    endloop
  endfacet
  facet normal -0 0 1
    outer loop
      vertex 2.89914 -2.89914 3
      vertex 4.52548 -4.52548 3
      vertex 3.25275 -2.49592 3
    endloop
  endfacet
  facet normal 0 0 1
    outer loop
      vertex 4.52548 -4.52548 3
      vertex 2.89914 -2.89914 3
      vertex 3.89607 -5.07746 3
    endloop
  endfacet
  facet normal -0 0 1
    outer loop
      vertex 2.49592 -3.25275 3
      vertex 3.89607 -5.07746 3
      vertex 2.89914 -2.89914 3
    endloop
  endfacet
  facet normal 0 0 1
    outer loop
      vertex 3.89607 -5.07746 3
      vertex 2.49592 -3.25275 3
      vertex 3.2 -5.54256 3
    endloop
  endfacet
  facet normal -0 0 1
    outer loop
      vertex 2.05 -3.5507 3
      vertex 3.2 -5.54256 3
      vertex 2.49592 -3.25275 3
    endloop
  endfacet
  facet normal 0 0 1
    outer loop
      vertex 3.2 -5.54256 3
      vertex 2.05 -3.5507 3
      vertex 2.44917 -5.91283 3
    endloop
  endfacet
  facet normal -0 0 1
    outer loop
      vertex 1.569 -3.78791 3
      vertex 2.44917 -5.91283 3
      vertex 2.05 -3.5507 3
    endloop
  endfacet
  facet normal 0 0 1
    outer loop
      vertex 2.44917 -5.91283 3
      vertex 1.569 -3.78791 3
      vertex 1.65644 -6.18192 3
    endloop
  endfacet
  facet normal -0 0 1
    outer loop
      vertex 1.06116 -3.9603 3
      vertex 1.65644 -6.18192 3
      vertex 1.569 -3.78791 3
    endloop
  endfacet
  facet normal 0 0 1
    outer loop
      vertex 1.06116 -3.9603 3
      vertex 0.835367 -6.34525 3
      vertex 1.65644 -6.18192 3
    endloop
  endfacet
  facet normal -0 0 1
    outer loop
      vertex 0.535157 -4.06492 3
      vertex 0.835367 -6.34525 3
      vertex 1.06116 -3.9603 3
    endloop
  endfacet
  facet normal -0 0 1
    outer loop
      vertex 0 -4.1 3
      vertex 0.835367 -6.34525 3
      vertex 0.535157 -4.06492 3
    endloop
  endfacet
  facet normal 0 0 1
    outer loop
      vertex 0 -4.1 3
      vertex 0 -6.4 3
      vertex 0.835367 -6.34525 3
    endloop
  endfacet
  facet normal 0 0 1
    outer loop
      vertex -0.535157 -4.06492 3
      vertex 0 -6.4 3
      vertex 0 -4.1 3
    endloop
  endfacet
  facet normal 0 0 1
    outer loop
      vertex -0.535157 -4.06492 3
      vertex -0.835367 -6.34525 3
      vertex 0 -6.4 3
    endloop
  endfacet
  facet normal 0 0 1
    outer loop
      vertex -1.06116 -3.9603 3
      vertex -0.835367 -6.34525 3
      vertex -0.535157 -4.06492 3
    endloop
  endfacet
  facet normal 0 0 1
    outer loop
      vertex -1.65644 -6.18192 3
      vertex -1.06116 -3.9603 3
      vertex -1.569 -3.78791 3
    endloop
  endfacet
  facet normal 0 0 1
    outer loop
      vertex -1.06116 -3.9603 3
      vertex -1.65644 -6.18192 3
      vertex -0.835367 -6.34525 3
    endloop
  endfacet
  facet normal 0 0 1
    outer loop
      vertex -2.44917 -5.91283 3
      vertex -1.569 -3.78791 3
      vertex -2.05 -3.5507 3
    endloop
  endfacet
  facet normal 0 0 1
    outer loop
      vertex -1.569 -3.78791 3
      vertex -2.44917 -5.91283 3
      vertex -1.65644 -6.18192 3
    endloop
  endfacet
  facet normal 0 0 1
    outer loop
      vertex -3.2 -5.54256 3
      vertex -2.05 -3.5507 3
      vertex -2.49592 -3.25275 3
    endloop
  endfacet
  facet normal 0 0 1
    outer loop
      vertex -3.89607 -5.07746 3
      vertex -2.49592 -3.25275 3
      vertex -2.89914 -2.89914 3
    endloop
  endfacet
  facet normal 0 0 1
    outer loop
      vertex -2.05 -3.5507 3
      vertex -3.2 -5.54256 3
      vertex -2.44917 -5.91283 3
    endloop
  endfacet
  facet normal 0 0 1
    outer loop
      vertex -4.52548 -4.52548 3
      vertex -2.89914 -2.89914 3
      vertex -3.25275 -2.49592 3
    endloop
  endfacet
  facet normal 0 0 1
    outer loop
      vertex -5.07746 -3.89607 3
      vertex -3.25275 -2.49592 3
      vertex -3.5507 -2.05 3
    endloop
  endfacet
  facet normal 0 0 1
    outer loop
      vertex -5.54256 -3.2 3
      vertex -3.5507 -2.05 3
      vertex -3.78791 -1.569 3
    endloop
  endfacet
  facet normal 0 0 1
    outer loop
      vertex -2.49592 -3.25275 3
      vertex -3.89607 -5.07746 3
      vertex -3.2 -5.54256 3
    endloop
  endfacet
  facet normal 0 0 1
    outer loop
      vertex -5.91283 -2.44917 3
      vertex -3.78791 -1.569 3
      vertex -3.9603 -1.06116 3
    endloop
  endfacet
  facet normal 0 0 1
    outer loop
      vertex -6.18192 -1.65644 3
      vertex -3.9603 -1.06116 3
      vertex -4.06492 -0.535157 3
    endloop
  endfacet
  facet normal 0 0 1
    outer loop
      vertex -6.34525 -0.835367 3
      vertex -4.06492 -0.535157 3
      vertex -4.1 0 3
    endloop
  endfacet
  facet normal 0 0 1
    outer loop
      vertex -3.78791 1.569 3
      vertex -5.91283 2.44917 3
      vertex -3.9603 1.06116 3
    endloop
  endfacet
  facet normal 0 0 1
    outer loop
      vertex -2.89914 -2.89914 3
      vertex -4.52548 -4.52548 3
      vertex -3.89607 -5.07746 3
    endloop
  endfacet
  facet normal -0 0 1
    outer loop
      vertex -6.18192 1.65644 3
      vertex -3.9603 1.06116 3
      vertex -5.91283 2.44917 3
    endloop
  endfacet
  facet normal 0 0 1
    outer loop
      vertex -3.25275 -2.49592 3
      vertex -5.07746 -3.89607 3
      vertex -4.52548 -4.52548 3
    endloop
  endfacet
  facet normal 0 0 1
    outer loop
      vertex -3.9603 1.06116 3
      vertex -6.18192 1.65644 3
      vertex -4.06492 0.535157 3
    endloop
  endfacet
  facet normal 0 0 1
    outer loop
      vertex -3.5507 -2.05 3
      vertex -5.54256 -3.2 3
      vertex -5.07746 -3.89607 3
    endloop
  endfacet
  facet normal -0 0 1
    outer loop
      vertex -6.34525 0.835367 3
      vertex -4.06492 0.535157 3
      vertex -6.18192 1.65644 3
    endloop
  endfacet
  facet normal 0 0 1
    outer loop
      vertex -3.78791 -1.569 3
      vertex -5.91283 -2.44917 3
      vertex -5.54256 -3.2 3
    endloop
  endfacet
  facet normal 0 0 1
    outer loop
      vertex -4.06492 0.535157 3
      vertex -6.34525 0.835367 3
      vertex -4.1 0 3
    endloop
  endfacet
  facet normal 0 0 1
    outer loop
      vertex -3.9603 -1.06116 3
      vertex -6.18192 -1.65644 3
      vertex -5.91283 -2.44917 3
    endloop
  endfacet
  facet normal 0 0 1
    outer loop
      vertex -6.4 0 3
      vertex -4.1 0 3
      vertex -6.34525 0.835367 3
    endloop
  endfacet
  facet normal 0 0 1
    outer loop
      vertex -4.06492 -0.535157 3
      vertex -6.34525 -0.835367 3
      vertex -6.18192 -1.65644 3
    endloop
  endfacet
  facet normal 0 0 1
    outer loop
      vertex -4.1 0 3
      vertex -6.4 0 3
      vertex -6.34525 -0.835367 3
    endloop
  endfacet
  facet normal 0 0 1
    outer loop
      vertex 9 2 3
      vertex 8 0 3
      vertex 9 -2 3
    endloop
  endfacet
  facet normal 0 0 1
    outer loop
      vertex 9 2 3
      vertex 7.99144 0.130526 3
      vertex 8 0 3
    endloop
  endfacet
  facet normal 0 0 1
    outer loop
      vertex 9 2 3
      vertex 7.96593 0.258819 3
      vertex 7.99144 0.130526 3
    endloop
  endfacet
  facet normal 0 0 1
    outer loop
      vertex 9 2 3
      vertex 7.92388 0.382683 3
      vertex 7.96593 0.258819 3
    endloop
  endfacet
  facet normal 0 0 1
    outer loop
      vertex 9 2 3
      vertex 7.86602 0.5 3
      vertex 7.92388 0.382683 3
    endloop
  endfacet
  facet normal 0 0 1
    outer loop
      vertex 9 2 3
      vertex 7.79335 0.608761 3
      vertex 7.86602 0.5 3
    endloop
  endfacet
  facet normal 0 0 1
    outer loop
      vertex 9 2 3
      vertex 7.70711 0.707107 3
      vertex 7.79335 0.608761 3
    endloop
  endfacet
  facet normal 0 0 1
    outer loop
      vertex 9 2 3
      vertex 7.60876 0.793353 3
      vertex 7.70711 0.707107 3
    endloop
  endfacet
  facet normal 0 0 1
    outer loop
      vertex 9 2 3
      vertex 7.5 0.866025 3
      vertex 7.60876 0.793353 3
    endloop
  endfacet
  facet normal 0 0 1
    outer loop
      vertex 9 2 3
      vertex 7.38268 0.923879 3
      vertex 7.5 0.866025 3
    endloop
  endfacet
  facet normal 0 0 1
    outer loop
      vertex 9 2 3
      vertex 7.25882 0.965925 3
      vertex 7.38268 0.923879 3
    endloop
  endfacet
  facet normal -0 0 1
    outer loop
      vertex 6.0653 2 3
      vertex 7.25882 0.965925 3
      vertex 9 2 3
    endloop
  endfacet
  facet normal 0 0 1
    outer loop
      vertex 7.25882 0.965925 3
      vertex 6.0653 2 3
      vertex 7.13053 0.991445 3
    endloop
  endfacet
  facet normal 0 0 1
    outer loop
      vertex 7.13053 0.991445 3
      vertex 6.0653 2 3
      vertex 7 1 3
    endloop
  endfacet
  facet normal 0 0 1
    outer loop
      vertex 7 1 3
      vertex 6.0653 2 3
      vertex 6.86947 0.991445 3
    endloop
  endfacet
  facet normal 0 0 1
    outer loop
      vertex 6.86947 0.991445 3
      vertex 6.0653 2 3
      vertex 6.74118 0.965925 3
    endloop
  endfacet
  facet normal 0 0 1
    outer loop
      vertex 6.74118 0.965925 3
      vertex 6.0653 2 3
      vertex 6.61732 0.923879 3
    endloop
  endfacet
  facet normal 0 0 1
    outer loop
      vertex 6.0653 2 3
      vertex 6.5 0.866025 3
      vertex 6.61732 0.923879 3
    endloop
  endfacet
  facet normal 0 0 1
    outer loop
      vertex 6.0653 2 3
      vertex 6.39124 0.793353 3
      vertex 6.5 0.866025 3
    endloop
  endfacet
  facet normal 0 0 1
    outer loop
      vertex 6.0653 2 3
      vertex 6.29289 0.707107 3
      vertex 6.39124 0.793353 3
    endloop
  endfacet
  facet normal 0 0 1
    outer loop
      vertex 6.0653 2 3
      vertex 6.20665 0.608761 3
      vertex 6.29289 0.707107 3
    endloop
  endfacet
  facet normal 0 0 1
    outer loop
      vertex 6.0653 2 3
      vertex 6.13397 0.5 3
      vertex 6.20665 0.608761 3
    endloop
  endfacet
  facet normal -0 0 1
    outer loop
      vertex 3.9603 1.06116 3
      vertex 6.13397 0.5 3
      vertex 6.0653 2 3
    endloop
  endfacet
  facet normal -0 -0 1
    outer loop
      vertex 4.06492 0.535157 3
      vertex 6.13397 0.5 3
      vertex 3.9603 1.06116 3
    endloop
  endfacet
  facet normal 0 0 1
    outer loop
      vertex 6.13397 0.5 3
      vertex 4.06492 0.535157 3
      vertex 6.07612 0.382683 3
    endloop
  endfacet
  facet normal 0 0 1
    outer loop
      vertex 6.07612 0.382683 3
      vertex 4.06492 0.535157 3
      vertex 6.03407 0.258819 3
    endloop
  endfacet
  facet normal 0 0 1
    outer loop
      vertex 3.78791 1.569 3
      vertex 6.0653 2 3
      vertex 5.91283 2.44917 3
    endloop
  endfacet
  facet normal -0 0 1
    outer loop
      vertex 7.99144 -0.130526 3
      vertex 9 -2 3
      vertex 8 0 3
    endloop
  endfacet
  facet normal -0 0 1
    outer loop
      vertex 7.96593 -0.258819 3
      vertex 9 -2 3
      vertex 7.99144 -0.130526 3
    endloop
  endfacet
  facet normal -0 0 1
    outer loop
      vertex 7.92388 -0.382683 3
      vertex 9 -2 3
      vertex 7.96593 -0.258819 3
    endloop
  endfacet
  facet normal -0 0 1
    outer loop
      vertex 7.86602 -0.5 3
      vertex 9 -2 3
      vertex 7.92388 -0.382683 3
    endloop
  endfacet
  facet normal -0 0 1
    outer loop
      vertex 7.79335 -0.608761 3
      vertex 9 -2 3
      vertex 7.86602 -0.5 3
    endloop
  endfacet
  facet normal -0 0 1
    outer loop
      vertex 7.70711 -0.707107 3
      vertex 9 -2 3
      vertex 7.79335 -0.608761 3
    endloop
  endfacet
  facet normal -0 0 1
    outer loop
      vertex 7.60876 -0.793353 3
      vertex 9 -2 3
      vertex 7.70711 -0.707107 3
    endloop
  endfacet
  facet normal -0 0 1
    outer loop
      vertex 7.5 -0.866025 3
      vertex 9 -2 3
      vertex 7.60876 -0.793353 3
    endloop
  endfacet
  facet normal -0 0 1
    outer loop
      vertex 7.38268 -0.923879 3
      vertex 9 -2 3
      vertex 7.5 -0.866025 3
    endloop
  endfacet
  facet normal -0 0 1
    outer loop
      vertex 7.25882 -0.965925 3
      vertex 9 -2 3
      vertex 7.38268 -0.923879 3
    endloop
  endfacet
  facet normal 0 0 1
    outer loop
      vertex 6.0653 -2 3
      vertex 7.25882 -0.965925 3
      vertex 7.13053 -0.991445 3
    endloop
  endfacet
  facet normal 0 0 1
    outer loop
      vertex 6.0653 -2 3
      vertex 7.13053 -0.991445 3
      vertex 7 -1 3
    endloop
  endfacet
  facet normal 0 0 1
    outer loop
      vertex 6.0653 -2 3
      vertex 7 -1 3
      vertex 6.86947 -0.991445 3
    endloop
  endfacet
  facet normal 0 0 1
    outer loop
      vertex 6.0653 -2 3
      vertex 6.86947 -0.991445 3
      vertex 6.74118 -0.965925 3
    endloop
  endfacet
  facet normal 0 0 1
    outer loop
      vertex 6.0653 -2 3
      vertex 6.74118 -0.965925 3
      vertex 6.61732 -0.923879 3
    endloop
  endfacet
  facet normal 0 0 1
    outer loop
      vertex 7.25882 -0.965925 3
      vertex 6.0653 -2 3
      vertex 9 -2 3
    endloop
  endfacet
  facet normal 0 0 1
    outer loop
      vertex 6.5 -0.866025 3
      vertex 6.0653 -2 3
      vertex 6.61732 -0.923879 3
    endloop
  endfacet
  facet normal 0 0 1
    outer loop
      vertex 6.39124 -0.793353 3
      vertex 6.0653 -2 3
      vertex 6.5 -0.866025 3
    endloop
  endfacet
  facet normal 0 0 1
    outer loop
      vertex 6.29289 -0.707107 3
      vertex 6.0653 -2 3
      vertex 6.39124 -0.793353 3
    endloop
  endfacet
  facet normal 0 0 1
    outer loop
      vertex 6.20665 -0.608761 3
      vertex 6.0653 -2 3
      vertex 6.29289 -0.707107 3
    endloop
  endfacet
  facet normal 0 0 1
    outer loop
      vertex 6.13397 -0.5 3
      vertex 6.0653 -2 3
      vertex 6.20665 -0.608761 3
    endloop
  endfacet
  facet normal 0 0 1
    outer loop
      vertex 6.03407 -0.258819 3
      vertex 4.06492 -0.535157 3
      vertex 6.07612 -0.382683 3
    endloop
  endfacet
  facet normal 0 0 1
    outer loop
      vertex 6.00855 -0.130526 3
      vertex 4.06492 -0.535157 3
      vertex 6.03407 -0.258819 3
    endloop
  endfacet
  facet normal 0 0 1
    outer loop
      vertex 4.06492 -0.535157 3
      vertex 6.00855 -0.130526 3
      vertex 4.1 0 3
    endloop
  endfacet
  facet normal -0 0 1
    outer loop
      vertex 4.1 0 3
      vertex 6.00855 -0.130526 3
      vertex 6 0 3
    endloop
  endfacet
  facet normal 0 0 1
    outer loop
      vertex 6.03407 0.258819 3
      vertex 4.06492 0.535157 3
      vertex 6.00855 0.130526 3
    endloop
  endfacet
  facet normal 0 0 1
    outer loop
      vertex 6.07612 -0.382683 3
      vertex 4.06492 -0.535157 3
      vertex 6.13397 -0.5 3
    endloop
  endfacet
  facet normal 0 0 1
    outer loop
      vertex 3.78791 1.569 3
      vertex 5.91283 2.44917 3
      vertex 5.54256 3.2 3
    endloop
  endfacet
  facet normal 0 0 1
    outer loop
      vertex 3.9603 -1.06116 3
      vertex 6.13397 -0.5 3
      vertex 4.06492 -0.535157 3
    endloop
  endfacet
  facet normal 0 0 1
    outer loop
      vertex 3.5507 2.05 3
      vertex 5.54256 3.2 3
      vertex 5.07746 3.89607 3
    endloop
  endfacet
  facet normal 0 0 1
    outer loop
      vertex 6.13397 -0.5 3
      vertex 3.9603 -1.06116 3
      vertex 6.0653 -2 3
    endloop
  endfacet
  facet normal 0 0 1
    outer loop
      vertex 3.25275 2.49592 3
      vertex 5.07746 3.89607 3
      vertex 4.52548 4.52548 3
    endloop
  endfacet
  facet normal -0 0 1
    outer loop
      vertex 3.78791 -1.569 3
      vertex 6.0653 -2 3
      vertex 3.9603 -1.06116 3
    endloop
  endfacet
  facet normal 0 0 1
    outer loop
      vertex 6.0653 -2 3
      vertex 3.78791 -1.569 3
      vertex 5.91283 -2.44917 3
    endloop
  endfacet
  facet normal 0 0 1
    outer loop
      vertex 6.00855 0.130526 3
      vertex 4.1 0 3
      vertex 6 0 3
    endloop
  endfacet
  facet normal 0 -0 1
    outer loop
      vertex 4.1 0 3
      vertex 6.00855 0.130526 3
      vertex 4.06492 0.535157 3
    endloop
  endfacet
  facet normal 0 0 1
    outer loop
      vertex 2.89914 2.89914 3
      vertex 4.52548 4.52548 3
      vertex 3.89607 5.07746 3
    endloop
  endfacet
  facet normal 0 0 1
    outer loop
      vertex 6.0653 2 3
      vertex 3.78791 1.569 3
      vertex 3.9603 1.06116 3
    endloop
  endfacet
  facet normal 0 0 1
    outer loop
      vertex 5.54256 3.2 3
      vertex 3.5507 2.05 3
      vertex 3.78791 1.569 3
    endloop
  endfacet
  facet normal 0 0 1
    outer loop
      vertex 5.07746 3.89607 3
      vertex 3.25275 2.49592 3
      vertex 3.5507 2.05 3
    endloop
  endfacet
  facet normal 0 0 1
    outer loop
      vertex 2.49592 3.25275 3
      vertex 3.89607 5.07746 3
      vertex 3.2 5.54256 3
    endloop
  endfacet
  facet normal 0 0 1
    outer loop
      vertex 4.52548 4.52548 3
      vertex 2.89914 2.89914 3
      vertex 3.25275 2.49592 3
    endloop
  endfacet
  facet normal 0 0 1
    outer loop
      vertex 3.89607 5.07746 3
      vertex 2.49592 3.25275 3
      vertex 2.89914 2.89914 3
    endloop
  endfacet
  facet normal 0 0 1
    outer loop
      vertex 2.05 3.5507 3
      vertex 3.2 5.54256 3
      vertex 2.44917 5.91283 3
    endloop
  endfacet
  facet normal 0 0 1
    outer loop
      vertex 3.2 5.54256 3
      vertex 2.05 3.5507 3
      vertex 2.49592 3.25275 3
    endloop
  endfacet
  facet normal 0 0 1
    outer loop
      vertex 1.569 3.78791 3
      vertex 2.44917 5.91283 3
      vertex 1.65644 6.18192 3
    endloop
  endfacet
  facet normal 0 0 1
    outer loop
      vertex 2.44917 5.91283 3
      vertex 1.569 3.78791 3
      vertex 2.05 3.5507 3
    endloop
  endfacet
  facet normal 0 0 1
    outer loop
      vertex 1.65644 6.18192 3
      vertex 1.06116 3.9603 3
      vertex 1.569 3.78791 3
    endloop
  endfacet
  facet normal 0 0 1
    outer loop
      vertex 0.835367 6.34525 3
      vertex 1.06116 3.9603 3
      vertex 1.65644 6.18192 3
    endloop
  endfacet
  facet normal 0 0 1
    outer loop
      vertex 0.835367 6.34525 3
      vertex 0.535157 4.06492 3
      vertex 1.06116 3.9603 3
    endloop
  endfacet
  facet normal 0 0 1
    outer loop
      vertex 0 6.4 3
      vertex 0.535157 4.06492 3
      vertex 0.835367 6.34525 3
    endloop
  endfacet
  facet normal 0 0 1
    outer loop
      vertex 0 6.4 3
      vertex 0 4.1 3
      vertex 0.535157 4.06492 3
    endloop
  endfacet
  facet normal 0 0 1
    outer loop
      vertex 0 6.4 3
      vertex -0.535157 4.06492 3
      vertex 0 4.1 3
    endloop
  endfacet
  facet normal -0 0 1
    outer loop
      vertex -0.835367 6.34525 3
      vertex -0.535157 4.06492 3
      vertex 0 6.4 3
    endloop
  endfacet
  facet normal 0 0 1
    outer loop
      vertex -0.835367 6.34525 3
      vertex -1.06116 3.9603 3
      vertex -0.535157 4.06492 3
    endloop
  endfacet
  facet normal -0 0 1
    outer loop
      vertex -1.65644 6.18192 3
      vertex -1.06116 3.9603 3
      vertex -0.835367 6.34525 3
    endloop
  endfacet
  facet normal 0 0 1
    outer loop
      vertex -1.06116 3.9603 3
      vertex -1.65644 6.18192 3
      vertex -1.569 3.78791 3
    endloop
  endfacet
  facet normal -0 0 1
    outer loop
      vertex -2.44917 5.91283 3
      vertex -1.569 3.78791 3
      vertex -1.65644 6.18192 3
    endloop
  endfacet
  facet normal 0 0 1
    outer loop
      vertex -1.569 3.78791 3
      vertex -2.44917 5.91283 3
      vertex -2.05 3.5507 3
    endloop
  endfacet
  facet normal -0 0 1
    outer loop
      vertex -3.2 5.54256 3
      vertex -2.05 3.5507 3
      vertex -2.44917 5.91283 3
    endloop
  endfacet
  facet normal 0 0 1
    outer loop
      vertex -2.05 3.5507 3
      vertex -3.2 5.54256 3
      vertex -2.49592 3.25275 3
    endloop
  endfacet
  facet normal -0 0 1
    outer loop
      vertex -3.89607 5.07746 3
      vertex -2.49592 3.25275 3
      vertex -3.2 5.54256 3
    endloop
  endfacet
  facet normal 0 0 1
    outer loop
      vertex -2.49592 3.25275 3
      vertex -3.89607 5.07746 3
      vertex -2.89914 2.89914 3
    endloop
  endfacet
  facet normal -0 0 1
    outer loop
      vertex -4.52548 4.52548 3
      vertex -2.89914 2.89914 3
      vertex -3.89607 5.07746 3
    endloop
  endfacet
  facet normal 0 0 1
    outer loop
      vertex -2.89914 2.89914 3
      vertex -4.52548 4.52548 3
      vertex -3.25275 2.49592 3
    endloop
  endfacet
  facet normal -0 0 1
    outer loop
      vertex -5.07746 3.89607 3
      vertex -3.25275 2.49592 3
      vertex -4.52548 4.52548 3
    endloop
  endfacet
  facet normal 0 0 1
    outer loop
      vertex -3.25275 2.49592 3
      vertex -5.07746 3.89607 3
      vertex -3.5507 2.05 3
    endloop
  endfacet
  facet normal -0 0 1
    outer loop
      vertex -5.54256 3.2 3
      vertex -3.5507 2.05 3
      vertex -5.07746 3.89607 3
    endloop
  endfacet
  facet normal 0 0 1
    outer loop
      vertex -3.5507 2.05 3
      vertex -5.54256 3.2 3
      vertex -3.78791 1.569 3
    endloop
  endfacet
  facet normal -0 0 1
    outer loop
      vertex -5.91283 2.44917 3
      vertex -3.78791 1.569 3
      vertex -5.54256 3.2 3
    endloop
  endfacet
  facet normal -0.980783 0.1951 0
    outer loop
      vertex -6.34525 0.835367 0
      vertex -6.18192 1.65644 3
      vertex -6.18192 1.65644 0
    endloop
  endfacet
  facet normal -0.980783 0.1951 0
    outer loop
      vertex -6.18192 1.65644 3
      vertex -6.34525 0.835367 0
      vertex -6.34525 0.835367 3
    endloop
  endfacet
  facet normal 0.946932 -0.321434 0
    outer loop
      vertex 5.91283 -2.44917 3
      vertex 6.0653 -2 0
      vertex 6.0653 -2 3
    endloop
  endfacet
  facet normal 0.946932 -0.321434 0
    outer loop
      vertex 6.0653 -2 0
      vertex 5.91283 -2.44917 3
      vertex 5.91283 -2.44917 0
    endloop
  endfacet
  facet normal 0.751838 -0.659347 0
    outer loop
      vertex 4.52548 -4.52548 3
      vertex 5.07746 -3.89607 0
      vertex 5.07746 -3.89607 3
    endloop
  endfacet
  facet normal 0.751838 -0.659347 0
    outer loop
      vertex 5.07746 -3.89607 0
      vertex 4.52548 -4.52548 3
      vertex 4.52548 -4.52548 0
    endloop
  endfacet
  facet normal 0.831469 -0.555571 0
    outer loop
      vertex 5.07746 -3.89607 3
      vertex 5.54256 -3.2 0
      vertex 5.54256 -3.2 3
    endloop
  endfacet
  facet normal 0.831469 -0.555571 0
    outer loop
      vertex 5.54256 -3.2 0
      vertex 5.07746 -3.89607 3
      vertex 5.07746 -3.89607 0
    endloop
  endfacet
  facet normal 0.659341 0.751844 -0
    outer loop
      vertex 2.89914 2.89914 3
      vertex 2.49592 3.25275 7
      vertex 2.89914 2.89914 7
    endloop
  endfacet
  facet normal 0.659341 0.751844 0
    outer loop
      vertex 2.49592 3.25275 7
      vertex 2.89914 2.89914 3
      vertex 2.49592 3.25275 3
    endloop
  endfacet
  facet normal -0.946929 0.321442 0
    outer loop
      vertex -3.9603 1.06116 3
      vertex -3.78791 1.569 7
      vertex -3.78791 1.569 3
    endloop
  endfacet
  facet normal -0.946929 0.321442 0
    outer loop
      vertex -3.78791 1.569 7
      vertex -3.9603 1.06116 3
      vertex -3.9603 1.06116 7
    endloop
  endfacet
  facet normal 0.980784 -0.195094 0
    outer loop
      vertex 4.06492 -0.535157 7
      vertex 4.03213 -0.7 6.2
      vertex 4.06492 -0.535157 6.2
    endloop
  endfacet
  facet normal 0.98079 -0.195066 0
    outer loop
      vertex 4.03213 -0.7 6.2
      vertex 3.9603 -1.06116 7
      vertex 4.03213 -0.7 5
    endloop
  endfacet
  facet normal 0.980788 -0.195075 -4.11078e-06
    outer loop
      vertex 3.9603 -1.06116 7
      vertex 4.03213 -0.7 6.2
      vertex 4.06492 -0.535157 7
    endloop
  endfacet
  facet normal 0.980784 -0.195094 0
    outer loop
      vertex 4.03213 -0.7 5
      vertex 4.06492 -0.535157 3
      vertex 4.06492 -0.535157 5
    endloop
  endfacet
  facet normal 0.98079 -0.195066 0
    outer loop
      vertex 3.9603 -1.06116 3
      vertex 4.03213 -0.7 5
      vertex 3.9603 -1.06116 7
    endloop
  endfacet
  facet normal 0.980788 -0.195075 1.64431e-06
    outer loop
      vertex 4.03213 -0.7 5
      vertex 3.9603 -1.06116 3
      vertex 4.06492 -0.535157 3
    endloop
  endfacet
  facet normal -0.321442 -0.946929 0
    outer loop
      vertex -1.569 -3.78791 3
      vertex -1.06116 -3.9603 7
      vertex -1.569 -3.78791 7
    endloop
  endfacet
  facet normal -0.321442 -0.946929 -0
    outer loop
      vertex -1.06116 -3.9603 7
      vertex -1.569 -3.78791 3
      vertex -1.06116 -3.9603 3
    endloop
  endfacet
  facet normal -0.321442 0.946929 0
    outer loop
      vertex -1.06116 3.9603 3
      vertex -1.569 3.78791 7
      vertex -1.06116 3.9603 7
    endloop
  endfacet
  facet normal -0.321442 0.946929 0
    outer loop
      vertex -1.569 3.78791 7
      vertex -1.06116 3.9603 3
      vertex -1.569 3.78791 3
    endloop
  endfacet
  facet normal -0.896868 0.442299 0
    outer loop
      vertex -3.78791 1.569 3
      vertex -3.5507 2.05 7
      vertex -3.5507 2.05 3
    endloop
  endfacet
  facet normal -0.896868 0.442299 0
    outer loop
      vertex -3.5507 2.05 7
      vertex -3.78791 1.569 3
      vertex -3.78791 1.569 7
    endloop
  endfacet
  facet normal 0.896868 0.442299 0
    outer loop
      vertex 3.78791 1.569 7
      vertex 3.5507 2.05 3
      vertex 3.5507 2.05 7
    endloop
  endfacet
  facet normal 0.896868 0.442299 0
    outer loop
      vertex 3.5507 2.05 3
      vertex 3.78791 1.569 7
      vertex 3.78791 1.569 3
    endloop
  endfacet
  facet normal 0.98079 0.195066 -0
    outer loop
      vertex 4.03213 0.7 5
      vertex 3.9603 1.06116 7
      vertex 4.03213 0.7 6.2
    endloop
  endfacet
  facet normal 0.980788 0.195075 -4.11078e-06
    outer loop
      vertex 4.06492 0.535157 7
      vertex 4.03213 0.7 6.2
      vertex 3.9603 1.06116 7
    endloop
  endfacet
  facet normal 0.980784 0.195094 0
    outer loop
      vertex 4.03213 0.7 6.2
      vertex 4.06492 0.535157 7
      vertex 4.06492 0.535157 6.2
    endloop
  endfacet
  facet normal 0.98079 0.195066 0
    outer loop
      vertex 3.9603 1.06116 7
      vertex 4.03213 0.7 5
      vertex 3.9603 1.06116 3
    endloop
  endfacet
  facet normal 0.980784 0.195094 -0
    outer loop
      vertex 4.06492 0.535157 3
      vertex 4.03213 0.7 5
      vertex 4.06492 0.535157 5
    endloop
  endfacet
  facet normal 0.980788 0.195075 1.64431e-06
    outer loop
      vertex 4.03213 0.7 5
      vertex 4.06492 0.535157 3
      vertex 3.9603 1.06116 3
    endloop
  endfacet
  facet normal 0.831473 0.555565 0
    outer loop
      vertex 3.5507 2.05 7
      vertex 3.25275 2.49592 3
      vertex 3.25275 2.49592 7
    endloop
  endfacet
  facet normal 0.831473 0.555565 0
    outer loop
      vertex 3.25275 2.49592 3
      vertex 3.5507 2.05 7
      vertex 3.5507 2.05 3
    endloop
  endfacet
  facet normal 0.751844 0.659341 0
    outer loop
      vertex 3.25275 2.49592 7
      vertex 2.89914 2.89914 3
      vertex 2.89914 2.89914 7
    endloop
  endfacet
  facet normal 0.751844 0.659341 0
    outer loop
      vertex 2.89914 2.89914 3
      vertex 3.25275 2.49592 7
      vertex 3.25275 2.49592 3
    endloop
  endfacet
  facet normal 0.442299 0.896868 -0
    outer loop
      vertex 2.05 3.5507 3
      vertex 1.569 3.78791 7
      vertex 2.05 3.5507 7
    endloop
  endfacet
  facet normal 0.442299 0.896868 0
    outer loop
      vertex 1.569 3.78791 7
      vertex 2.05 3.5507 3
      vertex 1.569 3.78791 3
    endloop
  endfacet
  facet normal 0.321442 0.946929 -0
    outer loop
      vertex 1.569 3.78791 3
      vertex 1.06116 3.9603 7
      vertex 1.569 3.78791 7
    endloop
  endfacet
  facet normal 0.321442 0.946929 0
    outer loop
      vertex 1.06116 3.9603 7
      vertex 1.569 3.78791 3
      vertex 1.06116 3.9603 3
    endloop
  endfacet
  facet normal -0.751844 0.659341 0
    outer loop
      vertex -3.25275 2.49592 3
      vertex -2.89914 2.89914 7
      vertex -2.89914 2.89914 3
    endloop
  endfacet
  facet normal -0.751844 0.659341 0
    outer loop
      vertex -2.89914 2.89914 7
      vertex -3.25275 2.49592 3
      vertex -3.25275 2.49592 7
    endloop
  endfacet
  facet normal -0.442299 0.896868 0
    outer loop
      vertex -1.569 3.78791 3
      vertex -2.05 3.5507 7
      vertex -1.569 3.78791 7
    endloop
  endfacet
  facet normal -0.442299 0.896868 0
    outer loop
      vertex -2.05 3.5507 7
      vertex -1.569 3.78791 3
      vertex -2.05 3.5507 3
    endloop
  endfacet
  facet normal -0.195075 0.980788 0
    outer loop
      vertex -0.535157 4.06492 3
      vertex -1.06116 3.9603 7
      vertex -0.535157 4.06492 7
    endloop
  endfacet
  facet normal -0.195075 0.980788 0
    outer loop
      vertex -1.06116 3.9603 7
      vertex -0.535157 4.06492 3
      vertex -1.06116 3.9603 3
    endloop
  endfacet
  facet normal 0.997858 0.0654105 0
    outer loop
      vertex 4.1 0 5
      vertex 4.06492 0.535157 3
      vertex 4.06492 0.535157 5
    endloop
  endfacet
  facet normal 0.997858 0.0654105 0
    outer loop
      vertex 4.06492 0.535157 3
      vertex 4.1 0 5
      vertex 4.1 0 3
    endloop
  endfacet
  facet normal 0.997858 0.0654105 0
    outer loop
      vertex 4.1 0 7
      vertex 4.06492 0.535157 6.2
      vertex 4.06492 0.535157 7
    endloop
  endfacet
  facet normal 0.997858 0.0654105 0
    outer loop
      vertex 4.06492 0.535157 6.2
      vertex 4.1 0 7
      vertex 4.1 0 6.2
    endloop
  endfacet
  facet normal 0.946929 -0.321442 0
    outer loop
      vertex 3.78791 -1.569 7
      vertex 3.9603 -1.06116 3
      vertex 3.9603 -1.06116 7
    endloop
  endfacet
  facet normal 0.946929 -0.321442 0
    outer loop
      vertex 3.9603 -1.06116 3
      vertex 3.78791 -1.569 7
      vertex 3.78791 -1.569 3
    endloop
  endfacet
  facet normal 0.321442 -0.946929 0
    outer loop
      vertex 1.06116 -3.9603 3
      vertex 1.569 -3.78791 7
      vertex 1.06116 -3.9603 7
    endloop
  endfacet
  facet normal 0.321442 -0.946929 0
    outer loop
      vertex 1.569 -3.78791 7
      vertex 1.06116 -3.9603 3
      vertex 1.569 -3.78791 3
    endloop
  endfacet
  facet normal 0.442299 -0.896868 0
    outer loop
      vertex 1.569 -3.78791 3
      vertex 2.05 -3.5507 7
      vertex 1.569 -3.78791 7
    endloop
  endfacet
  facet normal 0.442299 -0.896868 0
    outer loop
      vertex 2.05 -3.5507 7
      vertex 1.569 -3.78791 3
      vertex 2.05 -3.5507 3
    endloop
  endfacet
  facet normal -0.195075 -0.980788 0
    outer loop
      vertex -1.06116 -3.9603 3
      vertex -0.535157 -4.06492 7
      vertex -1.06116 -3.9603 7
    endloop
  endfacet
  facet normal -0.195075 -0.980788 -0
    outer loop
      vertex -0.535157 -4.06492 7
      vertex -1.06116 -3.9603 3
      vertex -0.535157 -4.06492 3
    endloop
  endfacet
  facet normal -0.659341 -0.751844 0
    outer loop
      vertex -2.89914 -2.89914 3
      vertex -2.49592 -3.25275 7
      vertex -2.89914 -2.89914 7
    endloop
  endfacet
  facet normal -0.659341 -0.751844 -0
    outer loop
      vertex -2.49592 -3.25275 7
      vertex -2.89914 -2.89914 3
      vertex -2.49592 -3.25275 3
    endloop
  endfacet
  facet normal -0.896868 -0.442299 0
    outer loop
      vertex -3.5507 -2.05 3
      vertex -3.78791 -1.569 7
      vertex -3.78791 -1.569 3
    endloop
  endfacet
  facet normal -0.896868 -0.442299 0
    outer loop
      vertex -3.78791 -1.569 7
      vertex -3.5507 -2.05 3
      vertex -3.5507 -2.05 7
    endloop
  endfacet
  facet normal 0.946929 0.321442 0
    outer loop
      vertex 3.9603 1.06116 7
      vertex 3.78791 1.569 3
      vertex 3.78791 1.569 7
    endloop
  endfacet
  facet normal 0.946929 0.321442 0
    outer loop
      vertex 3.78791 1.569 3
      vertex 3.9603 1.06116 7
      vertex 3.9603 1.06116 3
    endloop
  endfacet
  facet normal 0.555565 0.831473 -0
    outer loop
      vertex 2.49592 3.25275 3
      vertex 2.05 3.5507 7
      vertex 2.49592 3.25275 7
    endloop
  endfacet
  facet normal 0.555565 0.831473 0
    outer loop
      vertex 2.05 3.5507 7
      vertex 2.49592 3.25275 3
      vertex 2.05 3.5507 3
    endloop
  endfacet
  facet normal 0.0654105 0.997858 -0
    outer loop
      vertex 0.535157 4.06492 3
      vertex 0 4.1 7
      vertex 0.535157 4.06492 7
    endloop
  endfacet
  facet normal 0.0654105 0.997858 0
    outer loop
      vertex 0 4.1 7
      vertex 0.535157 4.06492 3
      vertex 0 4.1 3
    endloop
  endfacet
  facet normal -0.997858 0.0654105 0
    outer loop
      vertex -4.1 0 3
      vertex -4.06492 0.535157 5
      vertex -4.06492 0.535157 3
    endloop
  endfacet
  facet normal -0.997858 0.0654105 0
    outer loop
      vertex -4.06492 0.535157 5
      vertex -4.1 0 3
      vertex -4.1 0 5
    endloop
  endfacet
  facet normal -0.997858 0.0654105 0
    outer loop
      vertex -4.1 0 6.2
      vertex -4.06492 0.535157 7
      vertex -4.06492 0.535157 6.2
    endloop
  endfacet
  facet normal -0.997858 0.0654105 0
    outer loop
      vertex -4.06492 0.535157 7
      vertex -4.1 0 6.2
      vertex -4.1 0 7
    endloop
  endfacet
  facet normal -0.831473 0.555565 0
    outer loop
      vertex -3.5507 2.05 3
      vertex -3.25275 2.49592 7
      vertex -3.25275 2.49592 3
    endloop
  endfacet
  facet normal -0.831473 0.555565 0
    outer loop
      vertex -3.25275 2.49592 7
      vertex -3.5507 2.05 3
      vertex -3.5507 2.05 7
    endloop
  endfacet
  facet normal -0.0654105 0.997858 0
    outer loop
      vertex 0 4.1 3
      vertex -0.535157 4.06492 7
      vertex 0 4.1 7
    endloop
  endfacet
  facet normal -0.0654105 0.997858 0
    outer loop
      vertex -0.535157 4.06492 7
      vertex 0 4.1 3
      vertex -0.535157 4.06492 3
    endloop
  endfacet
  facet normal -0.555565 0.831473 0
    outer loop
      vertex -2.05 3.5507 3
      vertex -2.49592 3.25275 7
      vertex -2.05 3.5507 7
    endloop
  endfacet
  facet normal -0.555565 0.831473 0
    outer loop
      vertex -2.49592 3.25275 7
      vertex -2.05 3.5507 3
      vertex -2.49592 3.25275 3
    endloop
  endfacet
  facet normal -0.659341 0.751844 0
    outer loop
      vertex -2.49592 3.25275 3
      vertex -2.89914 2.89914 7
      vertex -2.49592 3.25275 7
    endloop
  endfacet
  facet normal -0.659341 0.751844 0
    outer loop
      vertex -2.89914 2.89914 7
      vertex -2.49592 3.25275 3
      vertex -2.89914 2.89914 3
    endloop
  endfacet
  facet normal 0.997858 -0.0654105 0
    outer loop
      vertex 4.06492 -0.535157 5
      vertex 4.1 0 3
      vertex 4.1 0 5
    endloop
  endfacet
  facet normal 0.997858 -0.0654105 0
    outer loop
      vertex 4.1 0 3
      vertex 4.06492 -0.535157 5
      vertex 4.06492 -0.535157 3
    endloop
  endfacet
  facet normal 0.997858 -0.0654105 0
    outer loop
      vertex 4.06492 -0.535157 7
      vertex 4.1 0 6.2
      vertex 4.1 0 7
    endloop
  endfacet
  facet normal 0.997858 -0.0654105 0
    outer loop
      vertex 4.1 0 6.2
      vertex 4.06492 -0.535157 7
      vertex 4.06492 -0.535157 6.2
    endloop
  endfacet
  facet normal 0.0654105 -0.997858 0
    outer loop
      vertex 0 -4.1 3
      vertex 0.535157 -4.06492 7
      vertex 0 -4.1 7
    endloop
  endfacet
  facet normal 0.0654105 -0.997858 0
    outer loop
      vertex 0.535157 -4.06492 7
      vertex 0 -4.1 3
      vertex 0.535157 -4.06492 3
    endloop
  endfacet
  facet normal 0.751844 -0.659341 0
    outer loop
      vertex 2.89914 -2.89914 7
      vertex 3.25275 -2.49592 3
      vertex 3.25275 -2.49592 7
    endloop
  endfacet
  facet normal 0.751844 -0.659341 0
    outer loop
      vertex 3.25275 -2.49592 3
      vertex 2.89914 -2.89914 7
      vertex 2.89914 -2.89914 3
    endloop
  endfacet
  facet normal 0.195075 -0.980788 0
    outer loop
      vertex 0.535157 -4.06492 3
      vertex 1.06116 -3.9603 7
      vertex 0.535157 -4.06492 7
    endloop
  endfacet
  facet normal 0.195075 -0.980788 0
    outer loop
      vertex 1.06116 -3.9603 7
      vertex 0.535157 -4.06492 3
      vertex 1.06116 -3.9603 3
    endloop
  endfacet
  facet normal 0.555565 -0.831473 0
    outer loop
      vertex 2.05 -3.5507 3
      vertex 2.49592 -3.25275 7
      vertex 2.05 -3.5507 7
    endloop
  endfacet
  facet normal 0.555565 -0.831473 0
    outer loop
      vertex 2.49592 -3.25275 7
      vertex 2.05 -3.5507 3
      vertex 2.49592 -3.25275 3
    endloop
  endfacet
  facet normal -0.0654105 -0.997858 0
    outer loop
      vertex -0.535157 -4.06492 3
      vertex 0 -4.1 7
      vertex -0.535157 -4.06492 7
    endloop
  endfacet
  facet normal -0.0654105 -0.997858 -0
    outer loop
      vertex 0 -4.1 7
      vertex -0.535157 -4.06492 3
      vertex 0 -4.1 3
    endloop
  endfacet
  facet normal -0.442299 -0.896868 0
    outer loop
      vertex -2.05 -3.5507 3
      vertex -1.569 -3.78791 7
      vertex -2.05 -3.5507 7
    endloop
  endfacet
  facet normal -0.442299 -0.896868 -0
    outer loop
      vertex -1.569 -3.78791 7
      vertex -2.05 -3.5507 3
      vertex -1.569 -3.78791 3
    endloop
  endfacet
  facet normal -0.946929 -0.321442 0
    outer loop
      vertex -3.78791 -1.569 3
      vertex -3.9603 -1.06116 7
      vertex -3.9603 -1.06116 3
    endloop
  endfacet
  facet normal -0.946929 -0.321442 0
    outer loop
      vertex -3.9603 -1.06116 7
      vertex -3.78791 -1.569 3
      vertex -3.78791 -1.569 7
    endloop
  endfacet
  facet normal -0.997858 -0.0654105 0
    outer loop
      vertex -4.06492 -0.535157 3
      vertex -4.1 0 5
      vertex -4.1 0 3
    endloop
  endfacet
  facet normal -0.997858 -0.0654105 0
    outer loop
      vertex -4.1 0 5
      vertex -4.06492 -0.535157 3
      vertex -4.06492 -0.535157 5
    endloop
  endfacet
  facet normal -0.997858 -0.0654105 0
    outer loop
      vertex -4.06492 -0.535157 6.2
      vertex -4.1 0 7
      vertex -4.1 0 6.2
    endloop
  endfacet
  facet normal -0.997858 -0.0654105 0
    outer loop
      vertex -4.1 0 7
      vertex -4.06492 -0.535157 6.2
      vertex -4.06492 -0.535157 7
    endloop
  endfacet
  facet normal -0.831473 -0.555565 0
    outer loop
      vertex -3.25275 -2.49592 3
      vertex -3.5507 -2.05 7
      vertex -3.5507 -2.05 3
    endloop
  endfacet
  facet normal -0.831473 -0.555565 0
    outer loop
      vertex -3.5507 -2.05 7
      vertex -3.25275 -2.49592 3
      vertex -3.25275 -2.49592 7
    endloop
  endfacet
  facet normal -0.751844 -0.659341 0
    outer loop
      vertex -2.89914 -2.89914 3
      vertex -3.25275 -2.49592 7
      vertex -3.25275 -2.49592 3
    endloop
  endfacet
  facet normal -0.751844 -0.659341 0
    outer loop
      vertex -3.25275 -2.49592 7
      vertex -2.89914 -2.89914 3
      vertex -2.89914 -2.89914 7
    endloop
  endfacet
  facet normal 0.195075 0.980788 -0
    outer loop
      vertex 1.06116 3.9603 3
      vertex 0.535157 4.06492 7
      vertex 1.06116 3.9603 7
    endloop
  endfacet
  facet normal 0.195075 0.980788 0
    outer loop
      vertex 0.535157 4.06492 7
      vertex 1.06116 3.9603 3
      vertex 0.535157 4.06492 3
    endloop
  endfacet
  facet normal 0 0 1
    outer loop
      vertex 4.06492 0.535157 7
      vertex 4.06492 -0.535157 7
      vertex 4.1 0 7
    endloop
  endfacet
  facet normal 0 0 1
    outer loop
      vertex 3.9603 1.06116 7
      vertex 4.06492 -0.535157 7
      vertex 4.06492 0.535157 7
    endloop
  endfacet
  facet normal 0 0 1
    outer loop
      vertex 3.9603 1.06116 7
      vertex 3.9603 -1.06116 7
      vertex 4.06492 -0.535157 7
    endloop
  endfacet
  facet normal 0 0 1
    outer loop
      vertex 3.78791 1.569 7
      vertex 3.9603 -1.06116 7
      vertex 3.9603 1.06116 7
    endloop
  endfacet
  facet normal 0 0 1
    outer loop
      vertex 3.78791 1.569 7
      vertex 3.78791 -1.569 7
      vertex 3.9603 -1.06116 7
    endloop
  endfacet
  facet normal 0 0 1
    outer loop
      vertex 3.5507 2.05 7
      vertex 3.78791 -1.569 7
      vertex 3.78791 1.569 7
    endloop
  endfacet
  facet normal 0 0 1
    outer loop
      vertex 3.5507 2.05 7
      vertex 3.5507 -2.05 7
      vertex 3.78791 -1.569 7
    endloop
  endfacet
  facet normal 0 0 1
    outer loop
      vertex 3.25275 2.49592 7
      vertex 3.5507 -2.05 7
      vertex 3.5507 2.05 7
    endloop
  endfacet
  facet normal 0 0 1
    outer loop
      vertex 3.25275 2.49592 7
      vertex 3.25275 -2.49592 7
      vertex 3.5507 -2.05 7
    endloop
  endfacet
  facet normal 0 0 1
    outer loop
      vertex 2.89914 2.89914 7
      vertex 3.25275 -2.49592 7
      vertex 3.25275 2.49592 7
    endloop
  endfacet
  facet normal 0 0 1
    outer loop
      vertex 2.89914 2.89914 7
      vertex 2.89914 -2.89914 7
      vertex 3.25275 -2.49592 7
    endloop
  endfacet
  facet normal 0 0 1
    outer loop
      vertex 2.49592 3.25275 7
      vertex 2.89914 -2.89914 7
      vertex 2.89914 2.89914 7
    endloop
  endfacet
  facet normal 0 0 1
    outer loop
      vertex 2.49592 3.25275 7
      vertex 2.49592 -3.25275 7
      vertex 2.89914 -2.89914 7
    endloop
  endfacet
  facet normal 0 0 1
    outer loop
      vertex 2.05 3.5507 7
      vertex 2.49592 -3.25275 7
      vertex 2.49592 3.25275 7
    endloop
  endfacet
  facet normal 0 0 1
    outer loop
      vertex 2.05 3.5507 7
      vertex 2.05 -3.5507 7
      vertex 2.49592 -3.25275 7
    endloop
  endfacet
  facet normal 0 0 1
    outer loop
      vertex 1.569 3.78791 7
      vertex 2.05 -3.5507 7
      vertex 2.05 3.5507 7
    endloop
  endfacet
  facet normal 0 0 1
    outer loop
      vertex 1.569 3.78791 7
      vertex 1.569 -3.78791 7
      vertex 2.05 -3.5507 7
    endloop
  endfacet
  facet normal 0 0 1
    outer loop
      vertex 1.06116 3.9603 7
      vertex 1.569 -3.78791 7
      vertex 1.569 3.78791 7
    endloop
  endfacet
  facet normal 0 0 1
    outer loop
      vertex 1.06116 3.9603 7
      vertex 1.06116 -3.9603 7
      vertex 1.569 -3.78791 7
    endloop
  endfacet
  facet normal 0 0 1
    outer loop
      vertex 0.535157 4.06492 7
      vertex 1.06116 -3.9603 7
      vertex 1.06116 3.9603 7
    endloop
  endfacet
  facet normal 0 0 1
    outer loop
      vertex 0.535157 4.06492 7
      vertex 0.535157 -4.06492 7
      vertex 1.06116 -3.9603 7
    endloop
  endfacet
  facet normal 0 0 1
    outer loop
      vertex 0 4.1 7
      vertex 0.535157 -4.06492 7
      vertex 0.535157 4.06492 7
    endloop
  endfacet
  facet normal 0 0 1
    outer loop
      vertex 0 4.1 7
      vertex 0 -4.1 7
      vertex 0.535157 -4.06492 7
    endloop
  endfacet
  facet normal -0 0 1
    outer loop
      vertex -0.535157 4.06492 7
      vertex 0 -4.1 7
      vertex 0 4.1 7
    endloop
  endfacet
  facet normal 0 0 1
    outer loop
      vertex -0.535157 4.06492 7
      vertex -0.535157 -4.06492 7
      vertex 0 -4.1 7
    endloop
  endfacet
  facet normal -0 0 1
    outer loop
      vertex -1.06116 3.9603 7
      vertex -0.535157 -4.06492 7
      vertex -0.535157 4.06492 7
    endloop
  endfacet
  facet normal 0 0 1
    outer loop
      vertex -1.06116 3.9603 7
      vertex -1.06116 -3.9603 7
      vertex -0.535157 -4.06492 7
    endloop
  endfacet
  facet normal -0 0 1
    outer loop
      vertex -1.569 3.78791 7
      vertex -1.06116 -3.9603 7
      vertex -1.06116 3.9603 7
    endloop
  endfacet
  facet normal 0 0 1
    outer loop
      vertex -1.569 3.78791 7
      vertex -1.569 -3.78791 7
      vertex -1.06116 -3.9603 7
    endloop
  endfacet
  facet normal -0 0 1
    outer loop
      vertex -2.05 3.5507 7
      vertex -1.569 -3.78791 7
      vertex -1.569 3.78791 7
    endloop
  endfacet
  facet normal 0 0 1
    outer loop
      vertex -2.05 3.5507 7
      vertex -2.05 -3.5507 7
      vertex -1.569 -3.78791 7
    endloop
  endfacet
  facet normal -0 0 1
    outer loop
      vertex -2.49592 3.25275 7
      vertex -2.05 -3.5507 7
      vertex -2.05 3.5507 7
    endloop
  endfacet
  facet normal 0 0 1
    outer loop
      vertex -2.49592 3.25275 7
      vertex -2.49592 -3.25275 7
      vertex -2.05 -3.5507 7
    endloop
  endfacet
  facet normal -0 0 1
    outer loop
      vertex -2.89914 2.89914 7
      vertex -2.49592 -3.25275 7
      vertex -2.49592 3.25275 7
    endloop
  endfacet
  facet normal 0 0 1
    outer loop
      vertex -2.89914 2.89914 7
      vertex -2.89914 -2.89914 7
      vertex -2.49592 -3.25275 7
    endloop
  endfacet
  facet normal -0 0 1
    outer loop
      vertex -3.25275 2.49592 7
      vertex -2.89914 -2.89914 7
      vertex -2.89914 2.89914 7
    endloop
  endfacet
  facet normal 0 0 1
    outer loop
      vertex -3.25275 2.49592 7
      vertex -3.25275 -2.49592 7
      vertex -2.89914 -2.89914 7
    endloop
  endfacet
  facet normal -0 0 1
    outer loop
      vertex -3.5507 2.05 7
      vertex -3.25275 -2.49592 7
      vertex -3.25275 2.49592 7
    endloop
  endfacet
  facet normal 0 0 1
    outer loop
      vertex -3.5507 2.05 7
      vertex -3.5507 -2.05 7
      vertex -3.25275 -2.49592 7
    endloop
  endfacet
  facet normal -0 0 1
    outer loop
      vertex -3.78791 1.569 7
      vertex -3.5507 -2.05 7
      vertex -3.5507 2.05 7
    endloop
  endfacet
  facet normal 0 0 1
    outer loop
      vertex -3.78791 1.569 7
      vertex -3.78791 -1.569 7
      vertex -3.5507 -2.05 7
    endloop
  endfacet
  facet normal -0 0 1
    outer loop
      vertex -3.9603 1.06116 7
      vertex -3.78791 -1.569 7
      vertex -3.78791 1.569 7
    endloop
  endfacet
  facet normal 0 0 1
    outer loop
      vertex -3.9603 1.06116 7
      vertex -3.9603 -1.06116 7
      vertex -3.78791 -1.569 7
    endloop
  endfacet
  facet normal -0 0 1
    outer loop
      vertex -4.06492 0.535157 7
      vertex -3.9603 -1.06116 7
      vertex -3.9603 1.06116 7
    endloop
  endfacet
  facet normal 0 0 1
    outer loop
      vertex -4.06492 0.535157 7
      vertex -4.06492 -0.535157 7
      vertex -3.9603 -1.06116 7
    endloop
  endfacet
  facet normal 0 -0 1
    outer loop
      vertex -4.06492 -0.535157 7
      vertex -4.06492 0.535157 7
      vertex -4.1 0 7
    endloop
  endfacet
  facet normal -0.98079 0.195066 0
    outer loop
      vertex -3.9603 1.06116 3
      vertex -4.03213 0.7 5
      vertex -3.9603 1.06116 7
    endloop
  endfacet
  facet normal -0.980788 0.195075 1.64431e-06
    outer loop
      vertex -4.06492 0.535157 3
      vertex -4.03213 0.7 5
      vertex -3.9603 1.06116 3
    endloop
  endfacet
  facet normal -0.980784 0.195094 0
    outer loop
      vertex -4.03213 0.7 5
      vertex -4.06492 0.535157 3
      vertex -4.06492 0.535157 5
    endloop
  endfacet
  facet normal -0.98079 0.195066 0
    outer loop
      vertex -4.03213 0.7 6.2
      vertex -3.9603 1.06116 7
      vertex -4.03213 0.7 5
    endloop
  endfacet
  facet normal -0.980784 0.195094 0
    outer loop
      vertex -4.06492 0.535157 7
      vertex -4.03213 0.7 6.2
      vertex -4.06492 0.535157 6.2
    endloop
  endfacet
  facet normal -0.980788 0.195075 -4.11078e-06
    outer loop
      vertex -4.03213 0.7 6.2
      vertex -4.06492 0.535157 7
      vertex -3.9603 1.06116 7
    endloop
  endfacet
  facet normal 0.896868 -0.442299 0
    outer loop
      vertex 3.5507 -2.05 7
      vertex 3.78791 -1.569 3
      vertex 3.78791 -1.569 7
    endloop
  endfacet
  facet normal 0.896868 -0.442299 0
    outer loop
      vertex 3.78791 -1.569 3
      vertex 3.5507 -2.05 7
      vertex 3.5507 -2.05 3
    endloop
  endfacet
  facet normal 0.659341 -0.751844 0
    outer loop
      vertex 2.49592 -3.25275 3
      vertex 2.89914 -2.89914 7
      vertex 2.49592 -3.25275 7
    endloop
  endfacet
  facet normal 0.659341 -0.751844 0
    outer loop
      vertex 2.89914 -2.89914 7
      vertex 2.49592 -3.25275 3
      vertex 2.89914 -2.89914 3
    endloop
  endfacet
  facet normal -0.555565 -0.831473 0
    outer loop
      vertex -2.49592 -3.25275 3
      vertex -2.05 -3.5507 7
      vertex -2.49592 -3.25275 7
    endloop
  endfacet
  facet normal -0.555565 -0.831473 -0
    outer loop
      vertex -2.05 -3.5507 7
      vertex -2.49592 -3.25275 3
      vertex -2.05 -3.5507 3
    endloop
  endfacet
  facet normal -0.980784 -0.195094 0
    outer loop
      vertex -4.06492 -0.535157 3
      vertex -4.03213 -0.7 5
      vertex -4.06492 -0.535157 5
    endloop
  endfacet
  facet normal -0.98079 -0.195066 -0
    outer loop
      vertex -3.9603 -1.06116 7
      vertex -4.03213 -0.7 5
      vertex -3.9603 -1.06116 3
    endloop
  endfacet
  facet normal -0.980788 -0.195075 1.64431e-06
    outer loop
      vertex -3.9603 -1.06116 3
      vertex -4.03213 -0.7 5
      vertex -4.06492 -0.535157 3
    endloop
  endfacet
  facet normal -0.980784 -0.195094 0
    outer loop
      vertex -4.03213 -0.7 6.2
      vertex -4.06492 -0.535157 7
      vertex -4.06492 -0.535157 6.2
    endloop
  endfacet
  facet normal -0.980788 -0.195075 -4.11078e-06
    outer loop
      vertex -4.03213 -0.7 6.2
      vertex -3.9603 -1.06116 7
      vertex -4.06492 -0.535157 7
    endloop
  endfacet
  facet normal -0.98079 -0.195066 0
    outer loop
      vertex -4.03213 -0.7 5
      vertex -3.9603 -1.06116 7
      vertex -4.03213 -0.7 6.2
    endloop
  endfacet
  facet normal 0.831473 -0.555565 0
    outer loop
      vertex 3.25275 -2.49592 7
      vertex 3.5507 -2.05 3
      vertex 3.5507 -2.05 7
    endloop
  endfacet
  facet normal 0.831473 -0.555565 0
    outer loop
      vertex 3.5507 -2.05 3
      vertex 3.25275 -2.49592 7
      vertex 3.25275 -2.49592 3
    endloop
  endfacet
  facet normal 1 -0 0
    outer loop
      vertex 9 -2 3
      vertex 9 2 0
      vertex 9 2 3
    endloop
  endfacet
  facet normal 1 0 0
    outer loop
      vertex 9 2 0
      vertex 9 -2 3
      vertex 9 -2 0
    endloop
  endfacet
  facet normal 0 1 -0
    outer loop
      vertex 9 2 0
      vertex 6.0653 2 3
      vertex 9 2 3
    endloop
  endfacet
  facet normal 0 1 0
    outer loop
      vertex 6.0653 2 3
      vertex 9 2 0
      vertex 6.0653 2 0
    endloop
  endfacet
  facet normal 0 -1 0
    outer loop
      vertex 6.0653 -2 0
      vertex 9 -2 3
      vertex 6.0653 -2 3
    endloop
  endfacet
  facet normal 0 -1 -0
    outer loop
      vertex 9 -2 3
      vertex 6.0653 -2 0
      vertex 9 -2 0
    endloop
  endfacet
  facet normal -0.997856 -0.0654402 0
    outer loop
      vertex 8 0 0
      vertex 7.99144 0.130526 3
      vertex 7.99144 0.130526 0
    endloop
  endfacet
  facet normal -0.997856 -0.0654402 0
    outer loop
      vertex 7.99144 0.130526 3
      vertex 8 0 0
      vertex 8 0 3
    endloop
  endfacet
  facet normal 0.997861 0.0653641 0
    outer loop
      vertex 6.00855 -0.130526 3
      vertex 6 0 0
      vertex 6 0 3
    endloop
  endfacet
  facet normal 0.997861 0.0653641 0
    outer loop
      vertex 6 0 0
      vertex 6.00855 -0.130526 3
      vertex 6.00855 -0.130526 0
    endloop
  endfacet
  facet normal 0.0654002 -0.997859 0
    outer loop
      vertex 6.86947 0.991445 0
      vertex 7 1 3
      vertex 6.86947 0.991445 3
    endloop
  endfacet
  facet normal 0.0654002 -0.997859 0
    outer loop
      vertex 7 1 3
      vertex 6.86947 0.991445 0
      vertex 7 1 0
    endloop
  endfacet
  facet normal -0.0654002 0.997859 0
    outer loop
      vertex 7.13053 -0.991445 0
      vertex 7 -1 3
      vertex 7.13053 -0.991445 3
    endloop
  endfacet
  facet normal -0.0654002 0.997859 0
    outer loop
      vertex 7 -1 3
      vertex 7.13053 -0.991445 0
      vertex 7 -1 0
    endloop
  endfacet
  facet normal -0.659326 -0.751857 0
    outer loop
      vertex 7.60876 0.793353 0
      vertex 7.70711 0.707107 3
      vertex 7.60876 0.793353 3
    endloop
  endfacet
  facet normal -0.659326 -0.751857 -0
    outer loop
      vertex 7.70711 0.707107 3
      vertex 7.60876 0.793353 0
      vertex 7.70711 0.707107 0
    endloop
  endfacet
  facet normal 0.751867 -0.659315 0
    outer loop
      vertex 6.20665 0.608761 3
      vertex 6.29289 0.707107 0
      vertex 6.29289 0.707107 3
    endloop
  endfacet
  facet normal 0.751867 -0.659315 0
    outer loop
      vertex 6.29289 0.707107 0
      vertex 6.20665 0.608761 3
      vertex 6.20665 0.608761 0
    endloop
  endfacet
  facet normal 0.442277 -0.896878 0
    outer loop
      vertex 6.5 0.866025 0
      vertex 6.61732 0.923879 3
      vertex 6.5 0.866025 3
    endloop
  endfacet
  facet normal 0.442277 -0.896878 0
    outer loop
      vertex 6.61732 0.923879 3
      vertex 6.5 0.866025 0
      vertex 6.61732 0.923879 0
    endloop
  endfacet
  facet normal -0.896856 -0.442323 0
    outer loop
      vertex 7.92388 0.382683 0
      vertex 7.86602 0.5 3
      vertex 7.86602 0.5 0
    endloop
  endfacet
  facet normal -0.896856 -0.442323 0
    outer loop
      vertex 7.86602 0.5 3
      vertex 7.92388 0.382683 0
      vertex 7.92388 0.382683 3
    endloop
  endfacet
  facet normal -0.980799 -0.195024 0
    outer loop
      vertex 7.99144 0.130526 0
      vertex 7.96593 0.258819 3
      vertex 7.96593 0.258819 0
    endloop
  endfacet
  facet normal -0.980799 -0.195024 0
    outer loop
      vertex 7.96593 0.258819 3
      vertex 7.99144 0.130526 0
      vertex 7.99144 0.130526 3
    endloop
  endfacet
  facet normal -0.321448 -0.946927 0
    outer loop
      vertex 7.25882 0.965925 0
      vertex 7.38268 0.923879 3
      vertex 7.25882 0.965925 3
    endloop
  endfacet
  facet normal -0.321448 -0.946927 -0
    outer loop
      vertex 7.38268 0.923879 3
      vertex 7.25882 0.965925 0
      vertex 7.38268 0.923879 0
    endloop
  endfacet
  facet normal -0.555575 -0.831466 0
    outer loop
      vertex 7.5 0.866025 0
      vertex 7.60876 0.793353 3
      vertex 7.5 0.866025 3
    endloop
  endfacet
  facet normal -0.555575 -0.831466 -0
    outer loop
      vertex 7.60876 0.793353 3
      vertex 7.5 0.866025 0
      vertex 7.60876 0.793353 0
    endloop
  endfacet
  facet normal 0.896886 -0.442262 0
    outer loop
      vertex 6.07612 0.382683 3
      vertex 6.13397 0.5 0
      vertex 6.13397 0.5 3
    endloop
  endfacet
  facet normal 0.896886 -0.442262 0
    outer loop
      vertex 6.13397 0.5 0
      vertex 6.07612 0.382683 3
      vertex 6.07612 0.382683 0
    endloop
  endfacet
  facet normal 0.831441 -0.555614 0
    outer loop
      vertex 6.13397 0.5 3
      vertex 6.20665 0.608761 0
      vertex 6.20665 0.608761 3
    endloop
  endfacet
  facet normal 0.831441 -0.555614 0
    outer loop
      vertex 6.20665 0.608761 0
      vertex 6.13397 0.5 3
      vertex 6.13397 0.5 0
    endloop
  endfacet
  facet normal 0.980784 -0.195097 0
    outer loop
      vertex 6.00855 0.130526 3
      vertex 6.03407 0.258819 0
      vertex 6.03407 0.258819 3
    endloop
  endfacet
  facet normal 0.980784 -0.195097 0
    outer loop
      vertex 6.03407 0.258819 0
      vertex 6.00855 0.130526 3
      vertex 6.00855 0.130526 0
    endloop
  endfacet
  facet normal 0.659326 -0.751857 0
    outer loop
      vertex 6.29289 0.707107 0
      vertex 6.39124 0.793353 3
      vertex 6.29289 0.707107 3
    endloop
  endfacet
  facet normal 0.659326 -0.751857 0
    outer loop
      vertex 6.39124 0.793353 3
      vertex 6.29289 0.707107 0
      vertex 6.39124 0.793353 0
    endloop
  endfacet
  facet normal 0.195102 -0.980783 0
    outer loop
      vertex 6.74118 0.965925 0
      vertex 6.86947 0.991445 3
      vertex 6.74118 0.965925 3
    endloop
  endfacet
  facet normal 0.195102 -0.980783 0
    outer loop
      vertex 6.86947 0.991445 3
      vertex 6.74118 0.965925 0
      vertex 6.86947 0.991445 0
    endloop
  endfacet
  facet normal -0.946921 -0.321466 0
    outer loop
      vertex 7.96593 0.258819 0
      vertex 7.92388 0.382683 3
      vertex 7.92388 0.382683 0
    endloop
  endfacet
  facet normal -0.946921 -0.321466 0
    outer loop
      vertex 7.92388 0.382683 3
      vertex 7.96593 0.258819 0
      vertex 7.96593 0.258819 3
    endloop
  endfacet
  facet normal -0.751867 -0.659315 0
    outer loop
      vertex 7.79335 0.608761 0
      vertex 7.70711 0.707107 3
      vertex 7.70711 0.707107 0
    endloop
  endfacet
  facet normal -0.751867 -0.659315 0
    outer loop
      vertex 7.70711 0.707107 3
      vertex 7.79335 0.608761 0
      vertex 7.79335 0.608761 3
    endloop
  endfacet
  facet normal -0.831476 -0.555561 0
    outer loop
      vertex 7.86602 0.5 0
      vertex 7.79335 0.608761 3
      vertex 7.79335 0.608761 0
    endloop
  endfacet
  facet normal -0.831476 -0.555561 0
    outer loop
      vertex 7.79335 0.608761 3
      vertex 7.86602 0.5 0
      vertex 7.86602 0.5 3
    endloop
  endfacet
  facet normal -0.195102 -0.980783 0
    outer loop
      vertex 7.13053 0.991445 0
      vertex 7.25882 0.965925 3
      vertex 7.13053 0.991445 3
    endloop
  endfacet
  facet normal -0.195102 -0.980783 -0
    outer loop
      vertex 7.25882 0.965925 3
      vertex 7.13053 0.991445 0
      vertex 7.25882 0.965925 0
    endloop
  endfacet
  facet normal -0.0654002 -0.997859 0
    outer loop
      vertex 7 1 0
      vertex 7.13053 0.991445 3
      vertex 7 1 3
    endloop
  endfacet
  facet normal -0.0654002 -0.997859 -0
    outer loop
      vertex 7.13053 0.991445 3
      vertex 7 1 0
      vertex 7.13053 0.991445 0
    endloop
  endfacet
  facet normal 0.946921 -0.321466 0
    outer loop
      vertex 6.03407 0.258819 3
      vertex 6.07612 0.382683 0
      vertex 6.07612 0.382683 3
    endloop
  endfacet
  facet normal 0.946921 -0.321466 0
    outer loop
      vertex 6.07612 0.382683 0
      vertex 6.03407 0.258819 3
      vertex 6.03407 0.258819 0
    endloop
  endfacet
  facet normal 0.997861 -0.0653641 0
    outer loop
      vertex 6 0 3
      vertex 6.00855 0.130526 0
      vertex 6.00855 0.130526 3
    endloop
  endfacet
  facet normal 0.997861 -0.0653641 0
    outer loop
      vertex 6.00855 0.130526 0
      vertex 6 0 3
      vertex 6 0 0
    endloop
  endfacet
  facet normal 0.555575 -0.831466 0
    outer loop
      vertex 6.39124 0.793353 0
      vertex 6.5 0.866025 3
      vertex 6.39124 0.793353 3
    endloop
  endfacet
  facet normal 0.555575 -0.831466 0
    outer loop
      vertex 6.5 0.866025 3
      vertex 6.39124 0.793353 0
      vertex 6.5 0.866025 0
    endloop
  endfacet
  facet normal 0.321448 -0.946927 0
    outer loop
      vertex 6.61732 0.923879 0
      vertex 6.74118 0.965925 3
      vertex 6.61732 0.923879 3
    endloop
  endfacet
  facet normal 0.321448 -0.946927 0
    outer loop
      vertex 6.74118 0.965925 3
      vertex 6.61732 0.923879 0
      vertex 6.74118 0.965925 0
    endloop
  endfacet
  facet normal -0.997856 0.0654402 0
    outer loop
      vertex 7.99144 -0.130526 0
      vertex 8 0 3
      vertex 8 0 0
    endloop
  endfacet
  facet normal -0.997856 0.0654402 0
    outer loop
      vertex 8 0 3
      vertex 7.99144 -0.130526 0
      vertex 7.99144 -0.130526 3
    endloop
  endfacet
  facet normal -0.751867 0.659315 0
    outer loop
      vertex 7.70711 -0.707107 0
      vertex 7.79335 -0.608761 3
      vertex 7.79335 -0.608761 0
    endloop
  endfacet
  facet normal -0.751867 0.659315 0
    outer loop
      vertex 7.79335 -0.608761 3
      vertex 7.70711 -0.707107 0
      vertex 7.70711 -0.707107 3
    endloop
  endfacet
  facet normal -0.980799 0.195024 0
    outer loop
      vertex 7.96593 -0.258819 0
      vertex 7.99144 -0.130526 3
      vertex 7.99144 -0.130526 0
    endloop
  endfacet
  facet normal -0.980799 0.195024 0
    outer loop
      vertex 7.99144 -0.130526 3
      vertex 7.96593 -0.258819 0
      vertex 7.96593 -0.258819 3
    endloop
  endfacet
  facet normal 0.980784 0.195097 0
    outer loop
      vertex 6.03407 -0.258819 3
      vertex 6.00855 -0.130526 0
      vertex 6.00855 -0.130526 3
    endloop
  endfacet
  facet normal 0.980784 0.195097 0
    outer loop
      vertex 6.00855 -0.130526 0
      vertex 6.03407 -0.258819 3
      vertex 6.03407 -0.258819 0
    endloop
  endfacet
  facet normal -0.442277 0.896878 0
    outer loop
      vertex 7.5 -0.866025 0
      vertex 7.38268 -0.923879 3
      vertex 7.5 -0.866025 3
    endloop
  endfacet
  facet normal -0.442277 0.896878 0
    outer loop
      vertex 7.38268 -0.923879 3
      vertex 7.5 -0.866025 0
      vertex 7.38268 -0.923879 0
    endloop
  endfacet
  facet normal -0.442277 -0.896878 0
    outer loop
      vertex 7.38268 0.923879 0
      vertex 7.5 0.866025 3
      vertex 7.38268 0.923879 3
    endloop
  endfacet
  facet normal -0.442277 -0.896878 -0
    outer loop
      vertex 7.5 0.866025 3
      vertex 7.38268 0.923879 0
      vertex 7.5 0.866025 0
    endloop
  endfacet
  facet normal -0.555575 0.831466 0
    outer loop
      vertex 7.60876 -0.793353 0
      vertex 7.5 -0.866025 3
      vertex 7.60876 -0.793353 3
    endloop
  endfacet
  facet normal -0.555575 0.831466 0
    outer loop
      vertex 7.5 -0.866025 3
      vertex 7.60876 -0.793353 0
      vertex 7.5 -0.866025 0
    endloop
  endfacet
  facet normal -0.946921 0.321466 0
    outer loop
      vertex 7.92388 -0.382683 0
      vertex 7.96593 -0.258819 3
      vertex 7.96593 -0.258819 0
    endloop
  endfacet
  facet normal -0.946921 0.321466 0
    outer loop
      vertex 7.96593 -0.258819 3
      vertex 7.92388 -0.382683 0
      vertex 7.92388 -0.382683 3
    endloop
  endfacet
  facet normal -0.896856 0.442323 0
    outer loop
      vertex 7.86602 -0.5 0
      vertex 7.92388 -0.382683 3
      vertex 7.92388 -0.382683 0
    endloop
  endfacet
  facet normal -0.896856 0.442323 0
    outer loop
      vertex 7.92388 -0.382683 3
      vertex 7.86602 -0.5 0
      vertex 7.86602 -0.5 3
    endloop
  endfacet
  facet normal -0.831476 0.555561 0
    outer loop
      vertex 7.79335 -0.608761 0
      vertex 7.86602 -0.5 3
      vertex 7.86602 -0.5 0
    endloop
  endfacet
  facet normal -0.831476 0.555561 0
    outer loop
      vertex 7.86602 -0.5 3
      vertex 7.79335 -0.608761 0
      vertex 7.79335 -0.608761 3
    endloop
  endfacet
  facet normal 0.321448 0.946927 -0
    outer loop
      vertex 6.74118 -0.965925 0
      vertex 6.61732 -0.923879 3
      vertex 6.74118 -0.965925 3
    endloop
  endfacet
  facet normal 0.321448 0.946927 0
    outer loop
      vertex 6.61732 -0.923879 3
      vertex 6.74118 -0.965925 0
      vertex 6.61732 -0.923879 0
    endloop
  endfacet
  facet normal 0.195102 0.980783 -0
    outer loop
      vertex 6.86947 -0.991445 0
      vertex 6.74118 -0.965925 3
      vertex 6.86947 -0.991445 3
    endloop
  endfacet
  facet normal 0.195102 0.980783 0
    outer loop
      vertex 6.74118 -0.965925 3
      vertex 6.86947 -0.991445 0
      vertex 6.74118 -0.965925 0
    endloop
  endfacet
  facet normal 0.659326 0.751857 -0
    outer loop
      vertex 6.39124 -0.793353 0
      vertex 6.29289 -0.707107 3
      vertex 6.39124 -0.793353 3
    endloop
  endfacet
  facet normal 0.659326 0.751857 0
    outer loop
      vertex 6.29289 -0.707107 3
      vertex 6.39124 -0.793353 0
      vertex 6.29289 -0.707107 0
    endloop
  endfacet
  facet normal 0.831441 0.555614 0
    outer loop
      vertex 6.20665 -0.608761 3
      vertex 6.13397 -0.5 0
      vertex 6.13397 -0.5 3
    endloop
  endfacet
  facet normal 0.831441 0.555614 0
    outer loop
      vertex 6.13397 -0.5 0
      vertex 6.20665 -0.608761 3
      vertex 6.20665 -0.608761 0
    endloop
  endfacet
  facet normal 0.946921 0.321466 0
    outer loop
      vertex 6.07612 -0.382683 3
      vertex 6.03407 -0.258819 0
      vertex 6.03407 -0.258819 3
    endloop
  endfacet
  facet normal 0.946921 0.321466 0
    outer loop
      vertex 6.03407 -0.258819 0
      vertex 6.07612 -0.382683 3
      vertex 6.07612 -0.382683 0
    endloop
  endfacet
  facet normal 0.896886 0.442262 0
    outer loop
      vertex 6.13397 -0.5 3
      vertex 6.07612 -0.382683 0
      vertex 6.07612 -0.382683 3
    endloop
  endfacet
  facet normal 0.896886 0.442262 0
    outer loop
      vertex 6.07612 -0.382683 0
      vertex 6.13397 -0.5 3
      vertex 6.13397 -0.5 0
    endloop
  endfacet
  facet normal -0.321448 0.946927 0
    outer loop
      vertex 7.38268 -0.923879 0
      vertex 7.25882 -0.965925 3
      vertex 7.38268 -0.923879 3
    endloop
  endfacet
  facet normal -0.321448 0.946927 0
    outer loop
      vertex 7.25882 -0.965925 3
      vertex 7.38268 -0.923879 0
      vertex 7.25882 -0.965925 0
    endloop
  endfacet
  facet normal -0.195102 0.980783 0
    outer loop
      vertex 7.25882 -0.965925 0
      vertex 7.13053 -0.991445 3
      vertex 7.25882 -0.965925 3
    endloop
  endfacet
  facet normal -0.195102 0.980783 0
    outer loop
      vertex 7.13053 -0.991445 3
      vertex 7.25882 -0.965925 0
      vertex 7.13053 -0.991445 0
    endloop
  endfacet
  facet normal -0.659326 0.751857 0
    outer loop
      vertex 7.70711 -0.707107 0
      vertex 7.60876 -0.793353 3
      vertex 7.70711 -0.707107 3
    endloop
  endfacet
  facet normal -0.659326 0.751857 0
    outer loop
      vertex 7.60876 -0.793353 3
      vertex 7.70711 -0.707107 0
      vertex 7.60876 -0.793353 0
    endloop
  endfacet
  facet normal 0.555575 0.831466 -0
    outer loop
      vertex 6.5 -0.866025 0
      vertex 6.39124 -0.793353 3
      vertex 6.5 -0.866025 3
    endloop
  endfacet
  facet normal 0.555575 0.831466 0
    outer loop
      vertex 6.39124 -0.793353 3
      vertex 6.5 -0.866025 0
      vertex 6.39124 -0.793353 0
    endloop
  endfacet
  facet normal 0.751867 0.659315 0
    outer loop
      vertex 6.29289 -0.707107 3
      vertex 6.20665 -0.608761 0
      vertex 6.20665 -0.608761 3
    endloop
  endfacet
  facet normal 0.751867 0.659315 0
    outer loop
      vertex 6.20665 -0.608761 0
      vertex 6.29289 -0.707107 3
      vertex 6.29289 -0.707107 0
    endloop
  endfacet
  facet normal 0.0654002 0.997859 -0
    outer loop
      vertex 7 -1 0
      vertex 6.86947 -0.991445 3
      vertex 7 -1 3
    endloop
  endfacet
  facet normal 0.0654002 0.997859 0
    outer loop
      vertex 6.86947 -0.991445 3
      vertex 7 -1 0
      vertex 6.86947 -0.991445 0
    endloop
  endfacet
  facet normal 0.442277 0.896878 -0
    outer loop
      vertex 6.61732 -0.923879 0
      vertex 6.5 -0.866025 3
      vertex 6.61732 -0.923879 3
    endloop
  endfacet
  facet normal 0.442277 0.896878 0
    outer loop
      vertex 6.5 -0.866025 3
      vertex 6.61732 -0.923879 0
      vertex 6.5 -0.866025 0
    endloop
  endfacet
endsolid OpenSCAD_Model
